<svg width="44" height="44" viewBox="0 0 44 44" fill="none" xmlns="http://www.w3.org/2000/svg">
<g clip-path="url(#clip0_2002_71)">
<foreignObject x="12" y="-3" width="40" height="35"><div xmlns="http://www.w3.org/1999/xhtml" style="backdrop-filter:blur(5px);clip-path:url(#bgblur_1_2002_71_clip_path);height:100%;width:100%"></div></foreignObject><g filter="url(#filter0_din_2002_71)" data-figma-bg-blur-radius="10">
<path d="M30.75 7C33.7747 7 36.297 9.14873 36.875 12.0029C36.9166 12.0019 36.9582 12 37 12C39.7614 12 42 14.2386 42 17C42 19.7614 39.7614 22 37 22H27C24.2386 22 22 19.7614 22 17C22 15.1377 23.0184 13.5138 24.5283 12.6533C24.8287 9.48144 27.4995 7 30.75 7Z" fill="#009CFD"/>
</g>
<foreignObject x="-8" y="-3" width="60" height="50"><div xmlns="http://www.w3.org/1999/xhtml" style="backdrop-filter:blur(5px);clip-path:url(#bgblur_2_2002_71_clip_path);height:100%;width:100%"></div></foreignObject><g filter="url(#filter1_din_2002_71)" data-figma-bg-blur-radius="10">
<path d="M19.5 7C25.5495 7 30.5951 11.2974 31.751 17.0059C31.8338 17.0038 31.9167 17 32 17C37.5228 17 42 21.4772 42 27C42 32.5228 37.5228 37 32 37H12C6.47715 37 2 32.5228 2 27C2 23.2757 4.03697 20.0286 7.05664 18.3076C7.65703 11.9634 12.9986 7 19.5 7Z" fill="url(#paint0_linear_2002_71)" shape-rendering="crispEdges"/>
<path d="M19.5 7C25.5495 7 30.5951 11.2974 31.751 17.0059C31.8338 17.0038 31.9167 17 32 17C37.5228 17 42 21.4772 42 27C42 32.5228 37.5228 37 32 37H12C6.47715 37 2 32.5228 2 27C2 23.2757 4.03697 20.0286 7.05664 18.3076C7.65703 11.9634 12.9986 7 19.5 7Z" fill="#009CFD" fill-opacity="0.25" shape-rendering="crispEdges"/>
<path d="M19.5 7.09961C25.5009 7.09961 30.5066 11.3627 31.6533 17.0254L31.6699 17.1074L31.7539 17.1055C31.8395 17.1034 31.9184 17.0996 32 17.0996C37.4676 17.0996 41.9004 21.5324 41.9004 27C41.9004 32.4676 37.4676 36.9004 32 36.9004H12C6.53238 36.9004 2.09961 32.4676 2.09961 27C2.09961 23.3131 4.11668 20.0985 7.10645 18.3945L7.15137 18.3691L7.15625 18.3174C7.75183 12.024 13.0507 7.09961 19.5 7.09961Z" stroke="url(#paint1_linear_2002_71)" stroke-width="0.2" shape-rendering="crispEdges"/>
</g>
</g>
<defs>
<filter id="filter0_din_2002_71" x="12" y="-3" width="40" height="35" filterUnits="userSpaceOnUse" color-interpolation-filters="sRGB">
<feFlood flood-opacity="0" result="BackgroundImageFix"/>
<feColorMatrix in="SourceAlpha" type="matrix" values="0 0 0 0 0 0 0 0 0 0 0 0 0 0 0 0 0 0 127 0" result="hardAlpha"/>
<feOffset dy="1"/>
<feGaussianBlur stdDeviation="2"/>
<feComposite in2="hardAlpha" operator="out"/>
<feColorMatrix type="matrix" values="0 0 0 0 0 0 0 0 0 0 0 0 0 0 0 0 0 0 0.12 0"/>
<feBlend mode="normal" in2="BackgroundImageFix" result="effect1_dropShadow_2002_71"/>
<feBlend mode="normal" in="SourceGraphic" in2="BackgroundImageFix" result="shape"/>
<feColorMatrix in="SourceAlpha" type="matrix" values="0 0 0 0 0 0 0 0 0 0 0 0 0 0 0 0 0 0 127 0" result="hardAlpha"/>
<feOffset dy="1"/>
<feGaussianBlur stdDeviation="1.5"/>
<feComposite in2="hardAlpha" operator="arithmetic" k2="-1" k3="1"/>
<feColorMatrix type="matrix" values="0 0 0 0 1 0 0 0 0 1 0 0 0 0 1 0 0 0 0.1 0"/>
<feBlend mode="normal" in2="shape" result="effect2_innerShadow_2002_71"/>
<feTurbulence type="fractalNoise" baseFrequency="10 10" stitchTiles="stitch" numOctaves="3" result="noise" seed="4151" />
<feColorMatrix in="noise" type="luminanceToAlpha" result="alphaNoise" />
<feComponentTransfer in="alphaNoise" result="coloredNoise1">
<feFuncA type="discrete" tableValues="0 0 0 0 0 0 0 1 1 1 1 1 1 1 1 1 1 1 1 1 1 1 1 1 1 1 1 1 1 1 1 1 1 1 1 1 1 1 1 1 1 1 1 0 0 0 0 0 0 0 0 0 0 0 0 0 0 0 0 0 0 0 0 0 0 0 0 0 0 0 0 0 0 0 0 0 0 0 0 0 0 0 0 0 0 0 0 0 0 0 0 0 0 0 0 0 0 0 0 0 "/>
</feComponentTransfer>
<feComposite operator="in" in2="effect2_innerShadow_2002_71" in="coloredNoise1" result="noise1Clipped" />
<feFlood flood-color="rgba(0, 0, 0, 0.05)" result="color1Flood" />
<feComposite operator="in" in2="noise1Clipped" in="color1Flood" result="color1" />
<feMerge result="effect3_noise_2002_71">
<feMergeNode in="effect2_innerShadow_2002_71" />
<feMergeNode in="color1" />
</feMerge>
<feBlend mode="normal" in="effect3_noise_2002_71" in2="effect1_dropShadow_2002_71" result="effect3_noise_2002_71"/>
</filter>
<clipPath id="bgblur_1_2002_71_clip_path" transform="translate(-12 3)"><path d="M30.75 7C33.7747 7 36.297 9.14873 36.875 12.0029C36.9166 12.0019 36.9582 12 37 12C39.7614 12 42 14.2386 42 17C42 19.7614 39.7614 22 37 22H27C24.2386 22 22 19.7614 22 17C22 15.1377 23.0184 13.5138 24.5283 12.6533C24.8287 9.48144 27.4995 7 30.75 7Z"/>
</clipPath><filter id="filter1_din_2002_71" x="-8" y="-3" width="60" height="50" filterUnits="userSpaceOnUse" color-interpolation-filters="sRGB">
<feFlood flood-opacity="0" result="BackgroundImageFix"/>
<feColorMatrix in="SourceAlpha" type="matrix" values="0 0 0 0 0 0 0 0 0 0 0 0 0 0 0 0 0 0 127 0" result="hardAlpha"/>
<feOffset dy="1"/>
<feGaussianBlur stdDeviation="2"/>
<feComposite in2="hardAlpha" operator="out"/>
<feColorMatrix type="matrix" values="0 0 0 0 0 0 0 0 0 0 0 0 0 0 0 0 0 0 0.12 0"/>
<feBlend mode="normal" in2="BackgroundImageFix" result="effect1_dropShadow_2002_71"/>
<feBlend mode="normal" in="SourceGraphic" in2="BackgroundImageFix" result="shape"/>
<feColorMatrix in="SourceAlpha" type="matrix" values="0 0 0 0 0 0 0 0 0 0 0 0 0 0 0 0 0 0 127 0" result="hardAlpha"/>
<feOffset dy="1"/>
<feGaussianBlur stdDeviation="1.5"/>
<feComposite in2="hardAlpha" operator="arithmetic" k2="-1" k3="1"/>
<feColorMatrix type="matrix" values="0 0 0 0 1 0 0 0 0 1 0 0 0 0 1 0 0 0 0.1 0"/>
<feBlend mode="normal" in2="shape" result="effect2_innerShadow_2002_71"/>
<feTurbulence type="fractalNoise" baseFrequency="10 10" stitchTiles="stitch" numOctaves="3" result="noise" seed="4151" />
<feColorMatrix in="noise" type="luminanceToAlpha" result="alphaNoise" />
<feComponentTransfer in="alphaNoise" result="coloredNoise1">
<feFuncA type="discrete" tableValues="0 0 0 0 0 0 0 1 1 1 1 1 1 1 1 1 1 1 1 1 1 1 1 1 1 1 1 1 1 1 1 1 1 1 1 1 1 1 1 1 1 1 1 0 0 0 0 0 0 0 0 0 0 0 0 0 0 0 0 0 0 0 0 0 0 0 0 0 0 0 0 0 0 0 0 0 0 0 0 0 0 0 0 0 0 0 0 0 0 0 0 0 0 0 0 0 0 0 0 0 "/>
</feComponentTransfer>
<feComposite operator="in" in2="effect2_innerShadow_2002_71" in="coloredNoise1" result="noise1Clipped" />
<feFlood flood-color="rgba(0, 0, 0, 0.05)" result="color1Flood" />
<feComposite operator="in" in2="noise1Clipped" in="color1Flood" result="color1" />
<feMerge result="effect3_noise_2002_71">
<feMergeNode in="effect2_innerShadow_2002_71" />
<feMergeNode in="color1" />
</feMerge>
<feBlend mode="normal" in="effect3_noise_2002_71" in2="effect1_dropShadow_2002_71" result="effect3_noise_2002_71"/>
</filter>
<clipPath id="bgblur_2_2002_71_clip_path" transform="translate(8 3)"><path d="M19.5 7C25.5495 7 30.5951 11.2974 31.751 17.0059C31.8338 17.0038 31.9167 17 32 17C37.5228 17 42 21.4772 42 27C42 32.5228 37.5228 37 32 37H12C6.47715 37 2 32.5228 2 27C2 23.2757 4.03697 20.0286 7.05664 18.3076C7.65703 11.9634 12.9986 7 19.5 7Z"/>
</clipPath><linearGradient id="paint0_linear_2002_71" x1="22" y1="5.70833" x2="22" y2="38" gradientUnits="userSpaceOnUse">
<stop stop-color="white" stop-opacity="0.1"/>
<stop offset="1" stop-color="white" stop-opacity="0"/>
</linearGradient>
<linearGradient id="paint1_linear_2002_71" x1="22" y1="7" x2="22" y2="37" gradientUnits="userSpaceOnUse">
<stop stop-color="white" stop-opacity="0.15"/>
<stop offset="1" stop-color="white" stop-opacity="0"/>
</linearGradient>
<clipPath id="clip0_2002_71">
<rect width="44" height="44" fill="white"/>
</clipPath>
</defs>
</svg>
