<svg width="44" height="44" viewBox="0 0 44 44" fill="none" xmlns="http://www.w3.org/2000/svg">
<g clip-path="url(#clip0_2002_85)">
<path d="M42 12C42 17.5228 37.5228 22 32 22C26.4772 22 22 17.5228 22 12C22 6.47715 26.4772 2 32 2C37.5228 2 42 6.47715 42 12Z" fill="#46C05B"/>
<foreignObject x="-6" y="-6" width="56" height="56"><div xmlns="http://www.w3.org/1999/xhtml" style="backdrop-filter:blur(5px);clip-path:url(#bgblur_1_2002_85_clip_path);height:100%;width:100%"></div></foreignObject><g filter="url(#filter0_din_2002_85)" data-figma-bg-blur-radius="10">
<path d="M40 22C40 31.9411 31.9411 40 22 40C12.0589 40 4 31.9411 4 22C4 12.0589 12.0589 4 22 4C31.9411 4 40 12.0589 40 22Z" fill="url(#paint0_linear_2002_85)" shape-rendering="crispEdges"/>
<path d="M40 22C40 31.9411 31.9411 40 22 40C12.0589 40 4 31.9411 4 22C4 12.0589 12.0589 4 22 4C31.9411 4 40 12.0589 40 22Z" fill="#46C05B" fill-opacity="0.25" shape-rendering="crispEdges"/>
<path d="M22 4.09961C31.8859 4.09961 39.9004 12.1141 39.9004 22C39.9004 31.8859 31.8859 39.9004 22 39.9004C12.1141 39.9004 4.09961 31.8859 4.09961 22C4.09961 12.1141 12.1141 4.09961 22 4.09961Z" stroke="url(#paint1_linear_2002_85)" stroke-width="0.2" shape-rendering="crispEdges"/>
</g>
<path opacity="0.8" d="M28.9394 12.9395C29.5252 12.3537 30.4748 12.3537 31.0605 12.9395C31.6463 13.5252 31.6463 14.4748 31.0605 15.0606L24.1211 22L31.0605 28.9395C31.6463 29.5252 31.6463 30.4748 31.0605 31.0606C30.4748 31.6463 29.5252 31.6463 28.9394 31.0606L22 24.1211L15.0605 31.0606C14.4748 31.6463 13.5252 31.6463 12.9394 31.0606C12.3537 30.4748 12.3537 29.5252 12.9394 28.9395L19.8789 22L12.9394 15.0606C12.3537 14.4748 12.3537 13.5252 12.9394 12.9395C13.5252 12.3537 14.4748 12.3537 15.0605 12.9395L22 19.8789L28.9394 12.9395Z" fill="url(#paint2_linear_2002_85)"/>
</g>
<defs>
<filter id="filter0_din_2002_85" x="-6" y="-6" width="56" height="56" filterUnits="userSpaceOnUse" color-interpolation-filters="sRGB">
<feFlood flood-opacity="0" result="BackgroundImageFix"/>
<feColorMatrix in="SourceAlpha" type="matrix" values="0 0 0 0 0 0 0 0 0 0 0 0 0 0 0 0 0 0 127 0" result="hardAlpha"/>
<feOffset dy="1"/>
<feGaussianBlur stdDeviation="2"/>
<feComposite in2="hardAlpha" operator="out"/>
<feColorMatrix type="matrix" values="0 0 0 0 0 0 0 0 0 0 0 0 0 0 0 0 0 0 0.12 0"/>
<feBlend mode="normal" in2="BackgroundImageFix" result="effect1_dropShadow_2002_85"/>
<feBlend mode="normal" in="SourceGraphic" in2="BackgroundImageFix" result="shape"/>
<feColorMatrix in="SourceAlpha" type="matrix" values="0 0 0 0 0 0 0 0 0 0 0 0 0 0 0 0 0 0 127 0" result="hardAlpha"/>
<feOffset dy="1"/>
<feGaussianBlur stdDeviation="1.5"/>
<feComposite in2="hardAlpha" operator="arithmetic" k2="-1" k3="1"/>
<feColorMatrix type="matrix" values="0 0 0 0 1 0 0 0 0 1 0 0 0 0 1 0 0 0 0.1 0"/>
<feBlend mode="normal" in2="shape" result="effect2_innerShadow_2002_85"/>
<feTurbulence type="fractalNoise" baseFrequency="10 10" stitchTiles="stitch" numOctaves="3" result="noise" seed="4151" />
<feColorMatrix in="noise" type="luminanceToAlpha" result="alphaNoise" />
<feComponentTransfer in="alphaNoise" result="coloredNoise1">
<feFuncA type="discrete" tableValues="0 0 0 0 0 0 0 1 1 1 1 1 1 1 1 1 1 1 1 1 1 1 1 1 1 1 1 1 1 1 1 1 1 1 1 1 1 1 1 1 1 1 1 0 0 0 0 0 0 0 0 0 0 0 0 0 0 0 0 0 0 0 0 0 0 0 0 0 0 0 0 0 0 0 0 0 0 0 0 0 0 0 0 0 0 0 0 0 0 0 0 0 0 0 0 0 0 0 0 0 "/>
</feComponentTransfer>
<feComposite operator="in" in2="effect2_innerShadow_2002_85" in="coloredNoise1" result="noise1Clipped" />
<feFlood flood-color="rgba(0, 0, 0, 0.05)" result="color1Flood" />
<feComposite operator="in" in2="noise1Clipped" in="color1Flood" result="color1" />
<feMerge result="effect3_noise_2002_85">
<feMergeNode in="effect2_innerShadow_2002_85" />
<feMergeNode in="color1" />
</feMerge>
<feBlend mode="normal" in="effect3_noise_2002_85" in2="effect1_dropShadow_2002_85" result="effect3_noise_2002_85"/>
</filter>
<clipPath id="bgblur_1_2002_85_clip_path" transform="translate(6 6)"><path d="M40 22C40 31.9411 31.9411 40 22 40C12.0589 40 4 31.9411 4 22C4 12.0589 12.0589 4 22 4C31.9411 4 40 12.0589 40 22Z"/>
</clipPath><linearGradient id="paint0_linear_2002_85" x1="22" y1="2.5" x2="22" y2="40" gradientUnits="userSpaceOnUse">
<stop stop-color="white" stop-opacity="0.1"/>
<stop offset="1" stop-color="white" stop-opacity="0"/>
</linearGradient>
<linearGradient id="paint1_linear_2002_85" x1="22" y1="4" x2="22" y2="40" gradientUnits="userSpaceOnUse">
<stop stop-color="white" stop-opacity="0.15"/>
<stop offset="1" stop-color="white" stop-opacity="0"/>
</linearGradient>
<linearGradient id="paint2_linear_2002_85" x1="22" y1="19.4091" x2="22" y2="31.4999" gradientUnits="userSpaceOnUse">
<stop stop-color="white"/>
<stop offset="1" stop-color="white" stop-opacity="0.3"/>
</linearGradient>
<clipPath id="clip0_2002_85">
<rect width="44" height="44" fill="white"/>
</clipPath>
</defs>
</svg>
