<svg width="44" height="44" viewBox="0 0 44 44" fill="none" xmlns="http://www.w3.org/2000/svg">
<path opacity="0.8" d="M36 32C38.2091 32 40 33.7909 40 36C40 38.2091 38.2091 40 36 40H8C5.79086 40 4 38.2091 4 36C4 33.7909 5.79086 32 8 32H36Z" fill="#009CFD"/>
<foreignObject x="-6" y="-6" width="56" height="51"><div xmlns="http://www.w3.org/1999/xhtml" style="backdrop-filter:blur(5px);clip-path:url(#bgblur_0_2002_163_clip_path);height:100%;width:100%"></div></foreignObject><g filter="url(#filter0_din_2002_163)" data-figma-bg-blur-radius="10">
<path d="M4 12C4 7.58172 7.58172 4 12 4H32C36.4183 4 40 7.58172 40 12V27C40 31.4183 36.4183 35 32 35H12C7.58172 35 4 31.4183 4 27V12Z" fill="url(#paint0_linear_2002_163)" shape-rendering="crispEdges"/>
<path d="M4 12C4 7.58172 7.58172 4 12 4H32C36.4183 4 40 7.58172 40 12V27C40 31.4183 36.4183 35 32 35H12C7.58172 35 4 31.4183 4 27V12Z" fill="#009CFD" fill-opacity="0.25" shape-rendering="crispEdges"/>
<path d="M12 4.09961H32C36.363 4.09961 39.9004 7.63695 39.9004 12V27C39.9004 31.363 36.363 34.9004 32 34.9004H12C7.63695 34.9004 4.09961 31.363 4.09961 27V12C4.09961 7.63695 7.63695 4.09961 12 4.09961Z" stroke="url(#paint1_linear_2002_163)" stroke-width="0.2" shape-rendering="crispEdges"/>
</g>
<defs>
<filter id="filter0_din_2002_163" x="-6" y="-6" width="56" height="51" filterUnits="userSpaceOnUse" color-interpolation-filters="sRGB">
<feFlood flood-opacity="0" result="BackgroundImageFix"/>
<feColorMatrix in="SourceAlpha" type="matrix" values="0 0 0 0 0 0 0 0 0 0 0 0 0 0 0 0 0 0 127 0" result="hardAlpha"/>
<feOffset dy="1"/>
<feGaussianBlur stdDeviation="2"/>
<feComposite in2="hardAlpha" operator="out"/>
<feColorMatrix type="matrix" values="0 0 0 0 0 0 0 0 0 0 0 0 0 0 0 0 0 0 0.12 0"/>
<feBlend mode="normal" in2="BackgroundImageFix" result="effect1_dropShadow_2002_163"/>
<feBlend mode="normal" in="SourceGraphic" in2="BackgroundImageFix" result="shape"/>
<feColorMatrix in="SourceAlpha" type="matrix" values="0 0 0 0 0 0 0 0 0 0 0 0 0 0 0 0 0 0 127 0" result="hardAlpha"/>
<feOffset dy="1"/>
<feGaussianBlur stdDeviation="1.5"/>
<feComposite in2="hardAlpha" operator="arithmetic" k2="-1" k3="1"/>
<feColorMatrix type="matrix" values="0 0 0 0 1 0 0 0 0 1 0 0 0 0 1 0 0 0 0.1 0"/>
<feBlend mode="normal" in2="shape" result="effect2_innerShadow_2002_163"/>
<feTurbulence type="fractalNoise" baseFrequency="10 10" stitchTiles="stitch" numOctaves="3" result="noise" seed="4151" />
<feColorMatrix in="noise" type="luminanceToAlpha" result="alphaNoise" />
<feComponentTransfer in="alphaNoise" result="coloredNoise1">
<feFuncA type="discrete" tableValues="0 0 0 0 0 0 0 1 1 1 1 1 1 1 1 1 1 1 1 1 1 1 1 1 1 1 1 1 1 1 1 1 1 1 1 1 1 1 1 1 1 1 1 0 0 0 0 0 0 0 0 0 0 0 0 0 0 0 0 0 0 0 0 0 0 0 0 0 0 0 0 0 0 0 0 0 0 0 0 0 0 0 0 0 0 0 0 0 0 0 0 0 0 0 0 0 0 0 0 0 "/>
</feComponentTransfer>
<feComposite operator="in" in2="effect2_innerShadow_2002_163" in="coloredNoise1" result="noise1Clipped" />
<feFlood flood-color="rgba(0, 0, 0, 0.05)" result="color1Flood" />
<feComposite operator="in" in2="noise1Clipped" in="color1Flood" result="color1" />
<feMerge result="effect3_noise_2002_163">
<feMergeNode in="effect2_innerShadow_2002_163" />
<feMergeNode in="color1" />
</feMerge>
<feBlend mode="normal" in="effect3_noise_2002_163" in2="effect1_dropShadow_2002_163" result="effect3_noise_2002_163"/>
</filter>
<clipPath id="bgblur_0_2002_163_clip_path" transform="translate(6 6)"><path d="M4 12C4 7.58172 7.58172 4 12 4H32C36.4183 4 40 7.58172 40 12V27C40 31.4183 36.4183 35 32 35H12C7.58172 35 4 31.4183 4 27V12Z"/>
</clipPath><linearGradient id="paint0_linear_2002_163" x1="22" y1="2.70833" x2="22" y2="35" gradientUnits="userSpaceOnUse">
<stop stop-color="white" stop-opacity="0.1"/>
<stop offset="1" stop-color="white" stop-opacity="0"/>
</linearGradient>
<linearGradient id="paint1_linear_2002_163" x1="22" y1="4" x2="22" y2="35" gradientUnits="userSpaceOnUse">
<stop stop-color="white" stop-opacity="0.15"/>
<stop offset="1" stop-color="white" stop-opacity="0"/>
</linearGradient>
</defs>
</svg>
