<svg width="44" height="44" viewBox="0 0 44 44" fill="none" xmlns="http://www.w3.org/2000/svg">
<path d="M12 17C17.5228 17 22 21.4772 22 27C22 32.5228 17.5228 37 12 37C6.47715 37 2 32.5228 2 27C2 21.4772 6.47715 17 12 17Z" fill="#46C05B"/>
<path d="M32 2C37.5228 2 42 6.47715 42 12C42 17.5228 37.5228 22 32 22C26.4772 22 22 17.5228 22 12C22 6.47715 26.4772 2 32 2Z" fill="#46C05B"/>
<foreignObject x="-5" y="-5" width="54" height="54"><div xmlns="http://www.w3.org/1999/xhtml" style="backdrop-filter:blur(5px);clip-path:url(#bgblur_0_2002_173_clip_path);height:100%;width:100%"></div></foreignObject><g filter="url(#filter0_din_2002_173)" data-figma-bg-blur-radius="10">
<path d="M39 22C39 31.3888 31.3888 39 22 39C12.6112 39 5 31.3888 5 22C5 12.6112 12.6112 5 22 5C31.3888 5 39 12.6112 39 22Z" fill="url(#paint0_linear_2002_173)" shape-rendering="crispEdges"/>
<path d="M39 22C39 31.3888 31.3888 39 22 39C12.6112 39 5 31.3888 5 22C5 12.6112 12.6112 5 22 5C31.3888 5 39 12.6112 39 22Z" fill="#009CFD" fill-opacity="0.25" shape-rendering="crispEdges"/>
<path d="M22 5.09961C31.3336 5.09961 38.9004 12.6664 38.9004 22C38.9004 31.3336 31.3336 38.9004 22 38.9004C12.6664 38.9004 5.09961 31.3336 5.09961 22C5.09961 12.6664 12.6664 5.09961 22 5.09961Z" stroke="url(#paint1_linear_2002_173)" stroke-width="0.2" shape-rendering="crispEdges"/>
</g>
<g opacity="0.8">
<path d="M24.1097 33.0518C25.4429 32.6927 26.6989 33.0498 26.9144 33.8496C27.1298 34.6495 26.2232 35.5892 24.89 35.9482C23.557 36.3072 22.302 35.95 22.0863 35.1504C21.8709 34.3505 22.7766 33.4109 24.1097 33.0518Z" fill="url(#paint2_linear_2002_173)"/>
<path d="M35.8988 12.2139C36.9894 12.474 37.9933 12.8497 38.8499 13.3691C40.2764 14.2344 41.3279 15.5302 41.5863 17.2959C41.84 19.0312 41.2445 20.6428 40.2347 22.0303C39.2336 23.4056 37.7688 24.6477 36.0746 25.7441C32.6813 27.94 28.0783 29.7352 23.4476 30.8838C18.8224 32.0309 14.0171 32.5712 10.2054 32.1494C8.30509 31.939 6.53716 31.4771 5.15268 30.6377C3.72575 29.7724 2.67368 28.4752 2.41538 26.709C2.16186 24.9738 2.75815 23.363 3.76792 21.9756C4.14072 21.4634 4.57755 20.9697 5.06674 20.4951C5.02326 20.9909 5.00035 21.493 5.00034 22C5.00036 23.2281 5.13182 24.4259 5.37924 25.5801C5.34825 25.8211 5.35155 26.0536 5.38413 26.2764C5.48794 26.9845 5.88547 27.5727 6.70932 28.0723C7.5758 28.5974 8.86203 28.9817 10.5355 29.167C13.8734 29.5363 18.3011 29.0692 22.7259 27.9717C27.1451 26.8755 31.4122 25.1879 34.4447 23.2256C35.9629 22.2431 37.1017 21.2362 37.8089 20.2646C38.507 19.3054 38.7256 18.4697 38.6175 17.7305C38.5587 17.3282 38.4054 16.9645 38.1331 16.6338C37.6042 15.043 36.8461 13.5569 35.8988 12.2139Z" fill="url(#paint3_linear_2002_173)"/>
<path d="M14.4144 22.6504C15.7474 22.2915 17.0026 22.6484 17.2181 23.4482C17.4335 24.2482 16.5269 25.1878 15.1937 25.5469C13.8609 25.9057 12.6057 25.5486 12.39 24.749C12.1746 23.9491 13.0812 23.0094 14.4144 22.6504Z" fill="url(#paint4_linear_2002_173)"/>
<path d="M27.0775 13.0449C28.4269 12.7532 29.7102 13.3921 29.9437 14.4717C30.1771 15.5512 29.2724 16.6631 27.9232 16.9551C26.5737 17.2469 25.2895 16.6079 25.056 15.5283C24.8227 14.4488 25.7281 13.3367 27.0775 13.0449Z" fill="url(#paint5_linear_2002_173)"/>
</g>
<defs>
<filter id="filter0_din_2002_173" x="-5" y="-5" width="54" height="54" filterUnits="userSpaceOnUse" color-interpolation-filters="sRGB">
<feFlood flood-opacity="0" result="BackgroundImageFix"/>
<feColorMatrix in="SourceAlpha" type="matrix" values="0 0 0 0 0 0 0 0 0 0 0 0 0 0 0 0 0 0 127 0" result="hardAlpha"/>
<feOffset dy="1"/>
<feGaussianBlur stdDeviation="2"/>
<feComposite in2="hardAlpha" operator="out"/>
<feColorMatrix type="matrix" values="0 0 0 0 0 0 0 0 0 0 0 0 0 0 0 0 0 0 0.12 0"/>
<feBlend mode="normal" in2="BackgroundImageFix" result="effect1_dropShadow_2002_173"/>
<feBlend mode="normal" in="SourceGraphic" in2="BackgroundImageFix" result="shape"/>
<feColorMatrix in="SourceAlpha" type="matrix" values="0 0 0 0 0 0 0 0 0 0 0 0 0 0 0 0 0 0 127 0" result="hardAlpha"/>
<feOffset dy="1"/>
<feGaussianBlur stdDeviation="1.5"/>
<feComposite in2="hardAlpha" operator="arithmetic" k2="-1" k3="1"/>
<feColorMatrix type="matrix" values="0 0 0 0 1 0 0 0 0 1 0 0 0 0 1 0 0 0 0.1 0"/>
<feBlend mode="normal" in2="shape" result="effect2_innerShadow_2002_173"/>
<feTurbulence type="fractalNoise" baseFrequency="10 10" stitchTiles="stitch" numOctaves="3" result="noise" seed="4151" />
<feColorMatrix in="noise" type="luminanceToAlpha" result="alphaNoise" />
<feComponentTransfer in="alphaNoise" result="coloredNoise1">
<feFuncA type="discrete" tableValues="0 0 0 0 0 0 0 1 1 1 1 1 1 1 1 1 1 1 1 1 1 1 1 1 1 1 1 1 1 1 1 1 1 1 1 1 1 1 1 1 1 1 1 0 0 0 0 0 0 0 0 0 0 0 0 0 0 0 0 0 0 0 0 0 0 0 0 0 0 0 0 0 0 0 0 0 0 0 0 0 0 0 0 0 0 0 0 0 0 0 0 0 0 0 0 0 0 0 0 0 "/>
</feComponentTransfer>
<feComposite operator="in" in2="effect2_innerShadow_2002_173" in="coloredNoise1" result="noise1Clipped" />
<feFlood flood-color="rgba(0, 0, 0, 0.05)" result="color1Flood" />
<feComposite operator="in" in2="noise1Clipped" in="color1Flood" result="color1" />
<feMerge result="effect3_noise_2002_173">
<feMergeNode in="effect2_innerShadow_2002_173" />
<feMergeNode in="color1" />
</feMerge>
<feBlend mode="normal" in="effect3_noise_2002_173" in2="effect1_dropShadow_2002_173" result="effect3_noise_2002_173"/>
</filter>
<clipPath id="bgblur_0_2002_173_clip_path" transform="translate(5 5)"><path d="M39 22C39 31.3888 31.3888 39 22 39C12.6112 39 5 31.3888 5 22C5 12.6112 12.6112 5 22 5C31.3888 5 39 12.6112 39 22Z"/>
</clipPath><linearGradient id="paint0_linear_2002_173" x1="22" y1="3.58333" x2="22" y2="39" gradientUnits="userSpaceOnUse">
<stop stop-color="white" stop-opacity="0.1"/>
<stop offset="1" stop-color="white" stop-opacity="0"/>
</linearGradient>
<linearGradient id="paint1_linear_2002_173" x1="22" y1="5" x2="22" y2="39" gradientUnits="userSpaceOnUse">
<stop stop-color="white" stop-opacity="0.15"/>
<stop offset="1" stop-color="white" stop-opacity="0"/>
</linearGradient>
<linearGradient id="paint2_linear_2002_173" x1="22.0008" y1="20.8953" x2="22.0008" y2="36.0878" gradientUnits="userSpaceOnUse">
<stop stop-color="white"/>
<stop offset="1" stop-color="white" stop-opacity="0.3"/>
</linearGradient>
<linearGradient id="paint3_linear_2002_173" x1="22.0008" y1="20.8953" x2="22.0008" y2="36.0878" gradientUnits="userSpaceOnUse">
<stop stop-color="white"/>
<stop offset="1" stop-color="white" stop-opacity="0.3"/>
</linearGradient>
<linearGradient id="paint4_linear_2002_173" x1="22.0008" y1="20.8953" x2="22.0008" y2="36.0878" gradientUnits="userSpaceOnUse">
<stop stop-color="white"/>
<stop offset="1" stop-color="white" stop-opacity="0.3"/>
</linearGradient>
<linearGradient id="paint5_linear_2002_173" x1="22.0008" y1="20.8953" x2="22.0008" y2="36.0878" gradientUnits="userSpaceOnUse">
<stop stop-color="white"/>
<stop offset="1" stop-color="white" stop-opacity="0.3"/>
</linearGradient>
</defs>
</svg>
