<svg width="44" height="44" viewBox="0 0 44 44" fill="none" xmlns="http://www.w3.org/2000/svg">
<g clip-path="url(#clip0_2002_212)">
<path d="M17.2426 23.9289C18.0237 23.1479 19.29 23.1479 20.0711 23.9289C20.8521 24.71 20.8521 25.9763 20.0711 26.7574L7.34314 39.4853C6.5621 40.2663 5.29577 40.2663 4.51472 39.4853C3.73367 38.7042 3.73367 37.4379 4.51472 36.6568L17.2426 23.9289Z" fill="#009CFD"/>
<foreignObject x="0" y="-8" width="52" height="52"><div xmlns="http://www.w3.org/1999/xhtml" style="backdrop-filter:blur(5px);clip-path:url(#bgblur_1_2002_212_clip_path);height:100%;width:100%"></div></foreignObject><g filter="url(#filter0_din_2002_212)" data-figma-bg-blur-radius="10">
<path d="M42 18C42 26.8366 34.8366 34 26 34C17.1634 34 10 26.8366 10 18C10 9.16344 17.1634 2 26 2C34.8366 2 42 9.16344 42 18Z" fill="url(#paint0_linear_2002_212)" shape-rendering="crispEdges"/>
<path d="M42 18C42 26.8366 34.8366 34 26 34C17.1634 34 10 26.8366 10 18C10 9.16344 17.1634 2 26 2C34.8366 2 42 9.16344 42 18Z" fill="#009CFD" fill-opacity="0.25" shape-rendering="crispEdges"/>
<path d="M26 2.09961C34.7813 2.09961 41.9004 9.21867 41.9004 18C41.9004 26.7813 34.7813 33.9004 26 33.9004C17.2187 33.9004 10.0996 26.7813 10.0996 18C10.0996 9.21867 17.2187 2.09961 26 2.09961Z" stroke="url(#paint1_linear_2002_212)" stroke-width="0.2" shape-rendering="crispEdges"/>
</g>
</g>
<defs>
<filter id="filter0_din_2002_212" x="0" y="-8" width="52" height="52" filterUnits="userSpaceOnUse" color-interpolation-filters="sRGB">
<feFlood flood-opacity="0" result="BackgroundImageFix"/>
<feColorMatrix in="SourceAlpha" type="matrix" values="0 0 0 0 0 0 0 0 0 0 0 0 0 0 0 0 0 0 127 0" result="hardAlpha"/>
<feOffset dy="1"/>
<feGaussianBlur stdDeviation="2"/>
<feComposite in2="hardAlpha" operator="out"/>
<feColorMatrix type="matrix" values="0 0 0 0 0 0 0 0 0 0 0 0 0 0 0 0 0 0 0.12 0"/>
<feBlend mode="normal" in2="BackgroundImageFix" result="effect1_dropShadow_2002_212"/>
<feBlend mode="normal" in="SourceGraphic" in2="BackgroundImageFix" result="shape"/>
<feColorMatrix in="SourceAlpha" type="matrix" values="0 0 0 0 0 0 0 0 0 0 0 0 0 0 0 0 0 0 127 0" result="hardAlpha"/>
<feOffset dy="1"/>
<feGaussianBlur stdDeviation="1.5"/>
<feComposite in2="hardAlpha" operator="arithmetic" k2="-1" k3="1"/>
<feColorMatrix type="matrix" values="0 0 0 0 1 0 0 0 0 1 0 0 0 0 1 0 0 0 0.1 0"/>
<feBlend mode="normal" in2="shape" result="effect2_innerShadow_2002_212"/>
<feTurbulence type="fractalNoise" baseFrequency="10 10" stitchTiles="stitch" numOctaves="3" result="noise" seed="4151" />
<feColorMatrix in="noise" type="luminanceToAlpha" result="alphaNoise" />
<feComponentTransfer in="alphaNoise" result="coloredNoise1">
<feFuncA type="discrete" tableValues="0 0 0 0 0 0 0 1 1 1 1 1 1 1 1 1 1 1 1 1 1 1 1 1 1 1 1 1 1 1 1 1 1 1 1 1 1 1 1 1 1 1 1 0 0 0 0 0 0 0 0 0 0 0 0 0 0 0 0 0 0 0 0 0 0 0 0 0 0 0 0 0 0 0 0 0 0 0 0 0 0 0 0 0 0 0 0 0 0 0 0 0 0 0 0 0 0 0 0 0 "/>
</feComponentTransfer>
<feComposite operator="in" in2="effect2_innerShadow_2002_212" in="coloredNoise1" result="noise1Clipped" />
<feFlood flood-color="rgba(0, 0, 0, 0.05)" result="color1Flood" />
<feComposite operator="in" in2="noise1Clipped" in="color1Flood" result="color1" />
<feMerge result="effect3_noise_2002_212">
<feMergeNode in="effect2_innerShadow_2002_212" />
<feMergeNode in="color1" />
</feMerge>
<feBlend mode="normal" in="effect3_noise_2002_212" in2="effect1_dropShadow_2002_212" result="effect3_noise_2002_212"/>
</filter>
<clipPath id="bgblur_1_2002_212_clip_path" transform="translate(0 8)"><path d="M42 18C42 26.8366 34.8366 34 26 34C17.1634 34 10 26.8366 10 18C10 9.16344 17.1634 2 26 2C34.8366 2 42 9.16344 42 18Z"/>
</clipPath><linearGradient id="paint0_linear_2002_212" x1="26" y1="0.666666" x2="26" y2="34" gradientUnits="userSpaceOnUse">
<stop stop-color="white" stop-opacity="0.1"/>
<stop offset="1" stop-color="white" stop-opacity="0"/>
</linearGradient>
<linearGradient id="paint1_linear_2002_212" x1="26" y1="2" x2="26" y2="34" gradientUnits="userSpaceOnUse">
<stop stop-color="white" stop-opacity="0.15"/>
<stop offset="1" stop-color="white" stop-opacity="0"/>
</linearGradient>
<clipPath id="clip0_2002_212">
<rect width="44" height="44" fill="white"/>
</clipPath>
</defs>
</svg>
