<svg width="44" height="44" viewBox="0 0 44 44" fill="none" xmlns="http://www.w3.org/2000/svg">
<g clip-path="url(#clip0_2002_219)">
<foreignObject x="8.94159" y="-8.05847" width="43.1168" height="43.1168"><div xmlns="http://www.w3.org/1999/xhtml" style="backdrop-filter:blur(5px);clip-path:url(#bgblur_1_2002_219_clip_path);height:100%;width:100%"></div></foreignObject><g filter="url(#filter0_din_2002_219)" data-figma-bg-blur-radius="10">
<path d="M28.5541 2.65818C29.6754 1.70264 31.3246 1.70264 32.4459 2.65818L33.5877 3.63125C34.0682 4.04072 34.6656 4.28818 35.2949 4.3384L36.7904 4.45774C38.2589 4.57493 39.425 5.74106 39.5422 7.20959L39.6615 8.70505C39.7118 9.33435 39.9592 9.93176 40.3687 10.4123L41.3418 11.5541C42.2973 12.6754 42.2973 14.3245 41.3418 15.4458L40.3687 16.5876C39.9592 17.0681 39.7118 17.6655 39.6615 18.2948L39.5422 19.7903C39.425 21.2588 38.2589 22.425 36.7904 22.5421L35.2949 22.6615C34.6656 22.7117 34.0682 22.9592 33.5877 23.3686L32.4459 24.3417C31.3246 25.2972 29.6754 25.2972 28.5541 24.3417L27.4123 23.3686C26.9318 22.9592 26.3344 22.7117 25.7051 22.6615L24.2096 22.5421C22.7411 22.425 21.575 21.2588 21.4578 19.7903L21.3385 18.2948C21.2882 17.6655 21.0408 17.0681 20.6313 16.5876L19.6582 15.4458C18.7027 14.3245 18.7027 12.6754 19.6582 11.5541L20.6313 10.4123C21.0408 9.93176 21.2882 9.33434 21.3385 8.70505L21.4578 7.20959C21.575 5.74106 22.7411 4.57493 24.2096 4.45774L25.7051 4.3384C26.3344 4.28818 26.9318 4.04072 27.4123 3.63125L28.5541 2.65818Z" fill="#9995B7"/>
<path d="M28.6193 2.7345C29.7032 1.81088 31.2972 1.81083 32.381 2.7345L33.5226 3.70715C34.0192 4.13027 34.637 4.38573 35.2873 4.43762L36.7824 4.55774C38.202 4.67104 39.3293 5.79833 39.4426 7.2179L39.5617 8.71301C39.6136 9.36309 39.8693 9.98025 40.2922 10.4767L41.2658 11.6193C42.1893 12.7031 42.1894 14.2972 41.2658 15.381L40.2922 16.5226C39.8691 17.0191 39.6136 17.637 39.5617 18.2872L39.4426 19.7823C39.3293 21.2019 38.202 22.3292 36.7824 22.4425L35.2873 22.5616C34.6371 22.6135 34.0191 22.869 33.5226 23.2921L32.381 24.2657C31.2972 25.1893 29.7032 25.1892 28.6193 24.2657L27.4767 23.2921C26.9803 22.8692 26.3632 22.6135 25.7131 22.5616L24.218 22.4425C22.7984 22.3292 21.6711 21.2019 21.5578 19.7823L21.4377 18.2872C21.3858 17.637 21.1303 17.0191 20.7072 16.5226L19.7346 15.381C18.8109 14.2971 18.8109 12.7032 19.7346 11.6193L20.7072 10.4767C21.1302 9.98021 21.3858 9.36321 21.4377 8.71301L21.5578 7.2179C21.6711 5.79832 22.7984 4.67102 24.218 4.55774L25.7131 4.43762C26.3633 4.38573 26.9803 4.13019 27.4767 3.70715L28.6193 2.7345Z" stroke="url(#paint0_linear_2002_219)" stroke-width="0.2"/>
</g>
<foreignObject x="-8.11683" y="-4.11682" width="56.2337" height="56.2336"><div xmlns="http://www.w3.org/1999/xhtml" style="backdrop-filter:blur(5px);clip-path:url(#bgblur_2_2002_219_clip_path);height:100%;width:100%"></div></foreignObject><g filter="url(#filter1_din_2002_219)" data-figma-bg-blur-radius="10">
<path d="M16.1083 7.31649C18.3508 5.40541 21.6492 5.40541 23.8917 7.31649L24.6446 7.95814C25.6056 8.77708 26.8005 9.272 28.0591 9.37244L29.0452 9.45113C31.9822 9.68551 34.3145 12.0178 34.5489 14.9548L34.6276 15.9409C34.728 17.1995 35.2229 18.3944 36.0419 19.3554L36.6835 20.1083C38.5946 22.3508 38.5946 25.6492 36.6835 27.8917L36.0419 28.6446C35.2229 29.6056 34.728 30.8005 34.6276 32.0591L34.5489 33.0452C34.3145 35.9822 31.9822 38.3145 29.0452 38.5489L28.0591 38.6276C26.8005 38.728 25.6056 39.2229 24.6446 40.0419L23.8917 40.6835C21.6492 42.5946 18.3508 42.5946 16.1083 40.6835L15.3554 40.0419C14.3944 39.2229 13.1995 38.728 11.9409 38.6276L10.9548 38.5489C8.01776 38.3145 5.6855 35.9822 5.45112 33.0452L5.37243 32.0591C5.27199 30.8005 4.77707 29.6056 3.95813 28.6446L3.31648 27.8917C1.4054 25.6492 1.4054 22.3508 3.31648 20.1083L3.95813 19.3554C4.77707 18.3944 5.27199 17.1995 5.37243 15.9409L5.45112 14.9548C5.6855 12.0178 8.01776 9.68551 10.9548 9.45113L11.9409 9.37244C13.1995 9.272 14.3944 8.77708 15.3554 7.95814L16.1083 7.31649Z" fill="url(#paint1_linear_2002_219)" shape-rendering="crispEdges"/>
<path d="M16.1083 7.31649C18.3508 5.40541 21.6492 5.40541 23.8917 7.31649L24.6446 7.95814C25.6056 8.77708 26.8005 9.272 28.0591 9.37244L29.0452 9.45113C31.9822 9.68551 34.3145 12.0178 34.5489 14.9548L34.6276 15.9409C34.728 17.1995 35.2229 18.3944 36.0419 19.3554L36.6835 20.1083C38.5946 22.3508 38.5946 25.6492 36.6835 27.8917L36.0419 28.6446C35.2229 29.6056 34.728 30.8005 34.6276 32.0591L34.5489 33.0452C34.3145 35.9822 31.9822 38.3145 29.0452 38.5489L28.0591 38.6276C26.8005 38.728 25.6056 39.2229 24.6446 40.0419L23.8917 40.6835C21.6492 42.5946 18.3508 42.5946 16.1083 40.6835L15.3554 40.0419C14.3944 39.2229 13.1995 38.728 11.9409 38.6276L10.9548 38.5489C8.01776 38.3145 5.6855 35.9822 5.45112 33.0452L5.37243 32.0591C5.27199 30.8005 4.77707 29.6056 3.95813 28.6446L3.31648 27.8917C1.4054 25.6492 1.4054 22.3508 3.31648 20.1083L3.95813 19.3554C4.77707 18.3944 5.27199 17.1995 5.37243 15.9409L5.45112 14.9548C5.6855 12.0178 8.01776 9.68551 10.9548 9.45113L11.9409 9.37244C13.1995 9.272 14.3944 8.77708 15.3554 7.95814L16.1083 7.31649Z" fill="#9995B7" fill-opacity="0.25" shape-rendering="crispEdges"/>
<path d="M16.1732 7.39294C18.3784 5.51372 21.6214 5.51372 23.8265 7.39294L24.5795 8.03455C25.5565 8.86714 26.7716 9.36994 28.0511 9.47205L29.0375 9.55115C31.9254 9.78174 34.2191 12.0752 34.4496 14.9633L34.5277 15.9486C34.6298 17.2282 35.1336 18.4433 35.9662 19.4203L36.6078 20.1732C38.4867 22.3783 38.4866 25.6215 36.6078 27.8265L35.9662 28.5795C35.1336 29.5565 34.6298 30.7716 34.5277 32.0511L34.4496 33.0375C34.219 35.9254 31.9254 38.219 29.0375 38.4496L28.0511 38.5277C26.7716 38.6298 25.5565 39.1336 24.5795 39.9662L23.8265 40.6078C21.6214 42.4866 18.3783 42.4867 16.1732 40.6078L15.4203 39.9662C14.4433 39.1336 13.2282 38.6298 11.9486 38.5277L10.9632 38.4496C8.07524 38.2191 5.78174 35.9255 5.55114 33.0375L5.47204 32.0511C5.36993 30.7716 4.86713 29.5565 4.03454 28.5795L3.39294 27.8265C1.51371 25.6214 1.51371 22.3784 3.39294 20.1732L4.03454 19.4203C4.86707 18.4433 5.36993 17.2281 5.47204 15.9486L5.55114 14.9633C5.78161 12.0752 8.07514 9.78162 10.9632 9.55115L11.9486 9.47205C13.2281 9.36994 14.4433 8.86708 15.4203 8.03455L16.1732 7.39294Z" stroke="url(#paint2_linear_2002_219)" stroke-width="0.2" shape-rendering="crispEdges"/>
</g>
<path opacity="0.8" d="M27 24C27 27.866 23.866 31 20 31C16.134 31 13 27.866 13 24C13 20.134 16.134 17 20 17C23.866 17 27 20.134 27 24Z" fill="url(#paint3_linear_2002_219)"/>
</g>
<defs>
<filter id="filter0_din_2002_219" x="8.94159" y="-8.05847" width="43.1168" height="43.1168" filterUnits="userSpaceOnUse" color-interpolation-filters="sRGB">
<feFlood flood-opacity="0" result="BackgroundImageFix"/>
<feColorMatrix in="SourceAlpha" type="matrix" values="0 0 0 0 0 0 0 0 0 0 0 0 0 0 0 0 0 0 127 0" result="hardAlpha"/>
<feOffset dy="1"/>
<feGaussianBlur stdDeviation="2"/>
<feComposite in2="hardAlpha" operator="out"/>
<feColorMatrix type="matrix" values="0 0 0 0 0 0 0 0 0 0 0 0 0 0 0 0 0 0 0.12 0"/>
<feBlend mode="normal" in2="BackgroundImageFix" result="effect1_dropShadow_2002_219"/>
<feBlend mode="normal" in="SourceGraphic" in2="BackgroundImageFix" result="shape"/>
<feColorMatrix in="SourceAlpha" type="matrix" values="0 0 0 0 0 0 0 0 0 0 0 0 0 0 0 0 0 0 127 0" result="hardAlpha"/>
<feOffset dy="1"/>
<feGaussianBlur stdDeviation="1.5"/>
<feComposite in2="hardAlpha" operator="arithmetic" k2="-1" k3="1"/>
<feColorMatrix type="matrix" values="0 0 0 0 1 0 0 0 0 1 0 0 0 0 1 0 0 0 0.1 0"/>
<feBlend mode="normal" in2="shape" result="effect2_innerShadow_2002_219"/>
<feTurbulence type="fractalNoise" baseFrequency="10 10" stitchTiles="stitch" numOctaves="3" result="noise" seed="4151" />
<feColorMatrix in="noise" type="luminanceToAlpha" result="alphaNoise" />
<feComponentTransfer in="alphaNoise" result="coloredNoise1">
<feFuncA type="discrete" tableValues="0 0 0 0 0 0 0 1 1 1 1 1 1 1 1 1 1 1 1 1 1 1 1 1 1 1 1 1 1 1 1 1 1 1 1 1 1 1 1 1 1 1 1 0 0 0 0 0 0 0 0 0 0 0 0 0 0 0 0 0 0 0 0 0 0 0 0 0 0 0 0 0 0 0 0 0 0 0 0 0 0 0 0 0 0 0 0 0 0 0 0 0 0 0 0 0 0 0 0 0 "/>
</feComponentTransfer>
<feComposite operator="in" in2="effect2_innerShadow_2002_219" in="coloredNoise1" result="noise1Clipped" />
<feFlood flood-color="rgba(0, 0, 0, 0.05)" result="color1Flood" />
<feComposite operator="in" in2="noise1Clipped" in="color1Flood" result="color1" />
<feMerge result="effect3_noise_2002_219">
<feMergeNode in="effect2_innerShadow_2002_219" />
<feMergeNode in="color1" />
</feMerge>
<feBlend mode="normal" in="effect3_noise_2002_219" in2="effect1_dropShadow_2002_219" result="effect3_noise_2002_219"/>
</filter>
<clipPath id="bgblur_1_2002_219_clip_path" transform="translate(-8.94159 8.05847)"><path d="M28.5541 2.65818C29.6754 1.70264 31.3246 1.70264 32.4459 2.65818L33.5877 3.63125C34.0682 4.04072 34.6656 4.28818 35.2949 4.3384L36.7904 4.45774C38.2589 4.57493 39.425 5.74106 39.5422 7.20959L39.6615 8.70505C39.7118 9.33435 39.9592 9.93176 40.3687 10.4123L41.3418 11.5541C42.2973 12.6754 42.2973 14.3245 41.3418 15.4458L40.3687 16.5876C39.9592 17.0681 39.7118 17.6655 39.6615 18.2948L39.5422 19.7903C39.425 21.2588 38.2589 22.425 36.7904 22.5421L35.2949 22.6615C34.6656 22.7117 34.0682 22.9592 33.5877 23.3686L32.4459 24.3417C31.3246 25.2972 29.6754 25.2972 28.5541 24.3417L27.4123 23.3686C26.9318 22.9592 26.3344 22.7117 25.7051 22.6615L24.2096 22.5421C22.7411 22.425 21.575 21.2588 21.4578 19.7903L21.3385 18.2948C21.2882 17.6655 21.0408 17.0681 20.6313 16.5876L19.6582 15.4458C18.7027 14.3245 18.7027 12.6754 19.6582 11.5541L20.6313 10.4123C21.0408 9.93176 21.2882 9.33434 21.3385 8.70505L21.4578 7.20959C21.575 5.74106 22.7411 4.57493 24.2096 4.45774L25.7051 4.3384C26.3344 4.28818 26.9318 4.04072 27.4123 3.63125L28.5541 2.65818Z"/>
</clipPath><filter id="filter1_din_2002_219" x="-8.11683" y="-4.11682" width="56.2337" height="56.2336" filterUnits="userSpaceOnUse" color-interpolation-filters="sRGB">
<feFlood flood-opacity="0" result="BackgroundImageFix"/>
<feColorMatrix in="SourceAlpha" type="matrix" values="0 0 0 0 0 0 0 0 0 0 0 0 0 0 0 0 0 0 127 0" result="hardAlpha"/>
<feOffset dy="1"/>
<feGaussianBlur stdDeviation="2"/>
<feComposite in2="hardAlpha" operator="out"/>
<feColorMatrix type="matrix" values="0 0 0 0 0 0 0 0 0 0 0 0 0 0 0 0 0 0 0.12 0"/>
<feBlend mode="normal" in2="BackgroundImageFix" result="effect1_dropShadow_2002_219"/>
<feBlend mode="normal" in="SourceGraphic" in2="BackgroundImageFix" result="shape"/>
<feColorMatrix in="SourceAlpha" type="matrix" values="0 0 0 0 0 0 0 0 0 0 0 0 0 0 0 0 0 0 127 0" result="hardAlpha"/>
<feOffset dy="1"/>
<feGaussianBlur stdDeviation="1.5"/>
<feComposite in2="hardAlpha" operator="arithmetic" k2="-1" k3="1"/>
<feColorMatrix type="matrix" values="0 0 0 0 1 0 0 0 0 1 0 0 0 0 1 0 0 0 0.1 0"/>
<feBlend mode="normal" in2="shape" result="effect2_innerShadow_2002_219"/>
<feTurbulence type="fractalNoise" baseFrequency="10 10" stitchTiles="stitch" numOctaves="3" result="noise" seed="4151" />
<feColorMatrix in="noise" type="luminanceToAlpha" result="alphaNoise" />
<feComponentTransfer in="alphaNoise" result="coloredNoise1">
<feFuncA type="discrete" tableValues="0 0 0 0 0 0 0 1 1 1 1 1 1 1 1 1 1 1 1 1 1 1 1 1 1 1 1 1 1 1 1 1 1 1 1 1 1 1 1 1 1 1 1 0 0 0 0 0 0 0 0 0 0 0 0 0 0 0 0 0 0 0 0 0 0 0 0 0 0 0 0 0 0 0 0 0 0 0 0 0 0 0 0 0 0 0 0 0 0 0 0 0 0 0 0 0 0 0 0 0 "/>
</feComponentTransfer>
<feComposite operator="in" in2="effect2_innerShadow_2002_219" in="coloredNoise1" result="noise1Clipped" />
<feFlood flood-color="rgba(0, 0, 0, 0.05)" result="color1Flood" />
<feComposite operator="in" in2="noise1Clipped" in="color1Flood" result="color1" />
<feMerge result="effect3_noise_2002_219">
<feMergeNode in="effect2_innerShadow_2002_219" />
<feMergeNode in="color1" />
</feMerge>
<feBlend mode="normal" in="effect3_noise_2002_219" in2="effect1_dropShadow_2002_219" result="effect3_noise_2002_219"/>
</filter>
<clipPath id="bgblur_2_2002_219_clip_path" transform="translate(8.11683 4.11682)"><path d="M16.1083 7.31649C18.3508 5.40541 21.6492 5.40541 23.8917 7.31649L24.6446 7.95814C25.6056 8.77708 26.8005 9.272 28.0591 9.37244L29.0452 9.45113C31.9822 9.68551 34.3145 12.0178 34.5489 14.9548L34.6276 15.9409C34.728 17.1995 35.2229 18.3944 36.0419 19.3554L36.6835 20.1083C38.5946 22.3508 38.5946 25.6492 36.6835 27.8917L36.0419 28.6446C35.2229 29.6056 34.728 30.8005 34.6276 32.0591L34.5489 33.0452C34.3145 35.9822 31.9822 38.3145 29.0452 38.5489L28.0591 38.6276C26.8005 38.728 25.6056 39.2229 24.6446 40.0419L23.8917 40.6835C21.6492 42.5946 18.3508 42.5946 16.1083 40.6835L15.3554 40.0419C14.3944 39.2229 13.1995 38.728 11.9409 38.6276L10.9548 38.5489C8.01776 38.3145 5.6855 35.9822 5.45112 33.0452L5.37243 32.0591C5.27199 30.8005 4.77707 29.6056 3.95813 28.6446L3.31648 27.8917C1.4054 25.6492 1.4054 22.3508 3.31648 20.1083L3.95813 19.3554C4.77707 18.3944 5.27199 17.1995 5.37243 15.9409L5.45112 14.9548C5.6855 12.0178 8.01776 9.68551 10.9548 9.45113L11.9409 9.37244C13.1995 9.272 14.3944 8.77708 15.3554 7.95814L16.1083 7.31649Z"/>
</clipPath><linearGradient id="paint0_linear_2002_219" x1="30.5" y1="1.94153" x2="30.5" y2="25.0584" gradientUnits="userSpaceOnUse">
<stop stop-color="white" stop-opacity="0.15"/>
<stop offset="1" stop-color="white" stop-opacity="0"/>
</linearGradient>
<linearGradient id="paint1_linear_2002_219" x1="20" y1="2.33333" x2="20" y2="44" gradientUnits="userSpaceOnUse">
<stop stop-color="white" stop-opacity="0.1"/>
<stop offset="1" stop-color="white" stop-opacity="0"/>
</linearGradient>
<linearGradient id="paint2_linear_2002_219" x1="20" y1="5.88318" x2="20" y2="42.1168" gradientUnits="userSpaceOnUse">
<stop stop-color="white" stop-opacity="0.15"/>
<stop offset="1" stop-color="white" stop-opacity="0"/>
</linearGradient>
<linearGradient id="paint3_linear_2002_219" x1="20" y1="22.0909" x2="20" y2="31" gradientUnits="userSpaceOnUse">
<stop stop-color="white"/>
<stop offset="1" stop-color="white" stop-opacity="0.3"/>
</linearGradient>
<clipPath id="clip0_2002_219">
<rect width="44" height="44" fill="white"/>
</clipPath>
</defs>
</svg>
