<svg width="85" height="81" viewBox="0 0 85 81" fill="none" xmlns="http://www.w3.org/2000/svg">
<foreignObject x="-8.39999" y="-8" width="92.8" height="88.8"><div xmlns="http://www.w3.org/1999/xhtml" style="backdrop-filter:blur(10px);clip-path:url(#bgblur_1_1_545_clip_path);height:100%;width:100%"></div></foreignObject><g filter="url(#filter0_di_1_545)" data-figma-bg-blur-radius="20">
<g clip-path="url(#clip0_1_545)">
<rect x="12" y="12.4" width="48" height="48" rx="12" fill="url(#paint0_linear_1_545)" fill-opacity="0.04" shape-rendering="crispEdges"/>
<g style="mix-blend-mode:plus-lighter" opacity="0.5" filter="url(#filter1_f_1_545)">
<path d="M28.4509 40.1926C28.6071 38.8987 29.1378 38.1742 30.1378 37.4316C31.5687 36.4258 33.356 36.9948 33.356 36.9948V33.6196C33.7906 33.6085 34.2253 33.6342 34.655 33.6966V38.0401C34.655 38.0401 32.8682 37.4711 31.4374 38.4774C30.4379 39.2196 29.9061 39.9445 29.7504 41.2384C29.7455 41.941 29.8774 42.8594 30.4846 43.6535C30.3344 43.5766 30.1814 43.4889 30.0255 43.3904C28.688 42.4923 28.4444 41.1448 28.4509 40.1926ZM42.0351 27.3789C41.0508 26.3003 40.6785 25.2113 40.544 24.4463H41.7822C41.7822 24.4463 41.5353 26.4522 43.3346 28.4247L43.3596 28.4513C42.8746 28.1462 42.4299 27.7862 42.0351 27.3789ZM48 30.4368V34.693C48 34.693 46.4199 34.6311 45.2506 34.3336C43.6179 33.9176 42.5684 33.2795 42.5684 33.2795C42.5684 33.2795 41.8435 32.8244 41.7849 32.7927V41.5816C41.7849 42.071 41.6509 43.2931 41.2423 44.3125C40.7089 45.6459 39.8858 46.5211 39.7344 46.7C39.7344 46.7 38.7333 47.8832 36.9671 48.6799C35.3751 49.3986 33.9773 49.3804 33.5595 49.3986C33.5595 49.3986 31.1433 49.4943 28.9691 48.0813C28.4989 47.7699 28.06 47.4171 27.6581 47.0277L27.669 47.0355C29.8437 48.4485 32.2594 48.3528 32.2594 48.3528C32.6778 48.3346 34.0755 48.3528 35.667 47.6341C37.4316 46.8373 38.4343 45.6542 38.4343 45.6542C38.5841 45.4753 39.411 44.6 39.9422 43.2661C40.3497 42.2473 40.4848 41.0247 40.4848 40.5353V31.7474C40.5434 31.7796 41.2678 32.2347 41.2678 32.2347C41.2678 32.2347 42.3178 32.8733 43.9505 33.2888C45.1203 33.5863 46.6999 33.6482 46.6999 33.6482V30.3131C47.2403 30.4342 47.701 30.467 48 30.4368Z" fill="#EE1D52"/>
<path d="M46.7004 30.3131V33.6472C46.7004 33.6472 45.1209 33.5853 43.951 33.2878C42.3183 32.8717 41.2684 32.2336 41.2684 32.2336C41.2684 32.2336 40.544 31.7786 40.4854 31.7463V40.5363C40.4854 41.0257 40.3514 42.2484 39.9428 43.2671C39.4094 44.6011 38.5863 45.4763 38.4349 45.6552C38.4349 45.6552 37.4332 46.8384 35.6676 47.6351C34.0761 48.3538 32.6783 48.3356 32.26 48.3538C32.26 48.3538 29.8443 48.4495 27.6695 47.0365L27.6587 47.0287C27.4291 46.8064 27.2129 46.5716 27.0113 46.3256C26.3173 45.4795 25.8919 44.4789 25.785 44.1934C25.7849 44.1922 25.7849 44.1909 25.785 44.1897C25.613 43.6936 25.2517 42.5021 25.301 41.3481C25.3884 39.3121 26.1046 38.0624 26.294 37.7494C26.7955 36.8956 27.4479 36.1318 28.2219 35.4918C28.905 34.9396 29.6792 34.5002 30.5128 34.1916C31.414 33.8294 32.379 33.6353 33.3561 33.6196V36.9948C33.3561 36.9948 31.5687 36.4279 30.1384 37.4316C29.1384 38.1742 28.6077 38.8987 28.4514 40.1926C28.4449 41.1448 28.6885 42.4923 30.025 43.3909C30.1809 43.4897 30.3339 43.5774 30.484 43.6541C30.7175 43.9576 31.0017 44.222 31.3251 44.4368C32.6306 45.2631 33.7245 45.3208 35.1233 44.7841C36.0561 44.4253 36.7582 43.6166 37.0838 42.7206C37.2883 42.161 37.2856 41.5978 37.2856 41.0153V24.4463H40.5413C40.6759 25.2113 41.0481 26.3003 42.0324 27.3789C42.4272 27.7862 42.8719 28.1462 43.3569 28.4513C43.5001 28.5995 44.2327 29.3322 45.173 29.7821C45.6592 30.0146 46.1717 30.1928 46.7004 30.3131Z" fill="black"/>
<path d="M24.4893 43.157V43.1596L24.57 43.3785C24.5608 43.353 24.5307 43.2755 24.4893 43.157Z" fill="#69C9D0"/>
<path d="M30.5128 34.1917C29.6792 34.5002 28.905 34.9396 28.2219 35.4918C27.4476 36.1332 26.7955 36.8987 26.2946 37.7541C26.1052 38.0661 25.389 39.3168 25.3016 41.3529C25.2522 42.5069 25.6136 43.6983 25.7856 44.1945C25.7854 44.1957 25.7854 44.1969 25.7856 44.1981C25.8941 44.481 26.3179 45.4816 27.0119 46.3303C27.2135 46.5764 27.4296 46.8111 27.6592 47.0334C26.9236 46.5458 26.2675 45.9562 25.7124 45.284C25.0243 44.4451 24.6 43.4549 24.4893 43.1627C24.4892 43.1606 24.4892 43.1585 24.4893 43.1564V43.1528C24.3168 42.6572 23.9543 41.4652 24.0048 40.3096C24.0921 38.2736 24.8084 37.0239 24.9977 36.7108C25.4985 35.8554 26.1507 35.0899 26.9251 34.4486C27.608 33.8962 28.3823 33.4568 29.216 33.1485C29.736 32.9417 30.2778 32.7891 30.8319 32.6934C31.6669 32.5537 32.5198 32.5416 33.3588 32.6575V33.6196C32.3808 33.635 31.4148 33.8291 30.5128 34.1917Z" fill="#69C9D0"/>
<path d="M40.544 24.4463H37.2883V41.0159C37.2883 41.5983 37.2883 42.16 37.0865 42.7211C36.7577 43.6166 36.0582 44.4253 35.126 44.7842C33.7266 45.323 32.6327 45.2631 31.3278 44.4368C31.0038 44.223 30.7189 43.9594 30.4846 43.6567C31.5964 44.2251 32.5915 44.2152 33.8243 43.7409C34.756 43.3821 35.4565 42.5734 35.7842 41.6774C35.9893 41.1178 35.9866 40.5546 35.9866 39.9726V23.4H40.4821C40.4821 23.4 40.4317 23.8119 40.544 24.4463ZM46.7004 29.391V30.3131C46.1726 30.1926 45.661 30.0145 45.1757 29.7821C44.2353 29.3323 43.5028 28.5995 43.3596 28.4513C43.5258 28.5559 43.6983 28.6511 43.8761 28.7363C45.0194 29.2834 46.1453 29.4467 46.7004 29.391Z" fill="#69C9D0"/>
</g>
<path d="M28.4509 40.1926C28.6071 38.8987 29.1378 38.1742 30.1378 37.4316C31.5687 36.4258 33.356 36.9948 33.356 36.9948V33.6196C33.7906 33.6085 34.2253 33.6342 34.655 33.6966V38.0401C34.655 38.0401 32.8682 37.4711 31.4374 38.4774C30.4379 39.2196 29.9061 39.9445 29.7504 41.2384C29.7455 41.941 29.8774 42.8594 30.4846 43.6535C30.3344 43.5766 30.1814 43.4889 30.0255 43.3904C28.688 42.4923 28.4444 41.1448 28.4509 40.1926ZM42.0351 27.3789C41.0508 26.3003 40.6785 25.2113 40.544 24.4463H41.7822C41.7822 24.4463 41.5353 26.4522 43.3346 28.4247L43.3596 28.4513C42.8746 28.1462 42.4299 27.7862 42.0351 27.3789ZM48 30.4368V34.693C48 34.693 46.4199 34.6311 45.2506 34.3336C43.6179 33.9176 42.5684 33.2795 42.5684 33.2795C42.5684 33.2795 41.8435 32.8244 41.7849 32.7927V41.5816C41.7849 42.071 41.6509 43.2931 41.2423 44.3125C40.7089 45.6459 39.8858 46.5211 39.7344 46.7C39.7344 46.7 38.7333 47.8832 36.9671 48.6799C35.3751 49.3986 33.9773 49.3804 33.5595 49.3986C33.5595 49.3986 31.1433 49.4943 28.9691 48.0813C28.4989 47.7699 28.06 47.4171 27.6581 47.0277L27.669 47.0355C29.8437 48.4485 32.2594 48.3528 32.2594 48.3528C32.6778 48.3346 34.0755 48.3528 35.667 47.6341C37.4316 46.8373 38.4343 45.6542 38.4343 45.6542C38.5841 45.4753 39.411 44.6 39.9422 43.2661C40.3497 42.2473 40.4848 41.0247 40.4848 40.5353V31.7474C40.5434 31.7796 41.2678 32.2347 41.2678 32.2347C41.2678 32.2347 42.3178 32.8733 43.9505 33.2888C45.1203 33.5863 46.6999 33.6482 46.6999 33.6482V30.3131C47.2403 30.4342 47.701 30.467 48 30.4368Z" fill="#EE1D52"/>
<path d="M46.7004 30.3131V33.6472C46.7004 33.6472 45.1209 33.5853 43.951 33.2878C42.3183 32.8717 41.2684 32.2336 41.2684 32.2336C41.2684 32.2336 40.544 31.7786 40.4854 31.7463V40.5363C40.4854 41.0257 40.3514 42.2484 39.9428 43.2671C39.4094 44.6011 38.5863 45.4763 38.4349 45.6552C38.4349 45.6552 37.4332 46.8384 35.6676 47.6351C34.0761 48.3538 32.6783 48.3356 32.26 48.3538C32.26 48.3538 29.8443 48.4495 27.6695 47.0365L27.6587 47.0287C27.4291 46.8064 27.2129 46.5716 27.0113 46.3256C26.3173 45.4795 25.8919 44.4789 25.785 44.1934C25.7849 44.1922 25.7849 44.1909 25.785 44.1897C25.613 43.6936 25.2517 42.5021 25.301 41.3481C25.3884 39.3121 26.1046 38.0624 26.294 37.7494C26.7955 36.8956 27.4479 36.1318 28.2219 35.4918C28.905 34.9396 29.6792 34.5002 30.5128 34.1916C31.414 33.8294 32.379 33.6353 33.3561 33.6196V36.9948C33.3561 36.9948 31.5687 36.4279 30.1384 37.4316C29.1384 38.1742 28.6077 38.8987 28.4514 40.1926C28.4449 41.1448 28.6885 42.4923 30.025 43.3909C30.1809 43.4897 30.3339 43.5774 30.484 43.6541C30.7175 43.9576 31.0017 44.222 31.3251 44.4368C32.6306 45.2631 33.7245 45.3208 35.1233 44.7841C36.0561 44.4253 36.7582 43.6166 37.0838 42.7206C37.2883 42.161 37.2856 41.5978 37.2856 41.0153V24.4463H40.5413C40.6759 25.2113 41.0481 26.3003 42.0324 27.3789C42.4272 27.7862 42.8719 28.1462 43.3569 28.4513C43.5001 28.5995 44.2327 29.3322 45.173 29.7821C45.6592 30.0146 46.1717 30.1928 46.7004 30.3131Z" fill="white"/>
<path d="M24.4893 43.157V43.1596L24.57 43.3785C24.5608 43.353 24.5307 43.2755 24.4893 43.157Z" fill="#69C9D0"/>
<path d="M30.5128 34.1917C29.6792 34.5002 28.905 34.9396 28.2219 35.4918C27.4476 36.1332 26.7955 36.8987 26.2946 37.7541C26.1052 38.0661 25.389 39.3168 25.3016 41.3529C25.2522 42.5069 25.6136 43.6983 25.7856 44.1945C25.7854 44.1957 25.7854 44.1969 25.7856 44.1981C25.8941 44.481 26.3179 45.4816 27.0119 46.3303C27.2135 46.5764 27.4296 46.8111 27.6592 47.0334C26.9236 46.5458 26.2675 45.9562 25.7124 45.284C25.0243 44.4451 24.6 43.4549 24.4893 43.1627C24.4892 43.1606 24.4892 43.1585 24.4893 43.1564V43.1528C24.3168 42.6572 23.9543 41.4652 24.0048 40.3096C24.0921 38.2736 24.8084 37.0239 24.9977 36.7108C25.4985 35.8554 26.1507 35.0899 26.9251 34.4486C27.608 33.8962 28.3823 33.4568 29.216 33.1485C29.736 32.9417 30.2778 32.7891 30.8319 32.6934C31.6669 32.5537 32.5198 32.5416 33.3588 32.6575V33.6196C32.3808 33.635 31.4148 33.8291 30.5128 34.1917Z" fill="#69C9D0"/>
<path d="M40.544 24.4463H37.2883V41.0159C37.2883 41.5983 37.2883 42.16 37.0865 42.7211C36.7577 43.6166 36.0582 44.4253 35.126 44.7842C33.7266 45.323 32.6327 45.2631 31.3278 44.4368C31.0038 44.223 30.7189 43.9594 30.4846 43.6567C31.5964 44.2251 32.5915 44.2152 33.8243 43.7409C34.756 43.3821 35.4565 42.5734 35.7842 41.6774C35.9893 41.1178 35.9866 40.5546 35.9866 39.9726V23.4H40.4821C40.4821 23.4 40.4317 23.8119 40.544 24.4463ZM46.7004 29.391V30.3131C46.1726 30.1926 45.661 30.0145 45.1757 29.7821C44.2353 29.3323 43.5028 28.5995 43.3596 28.4513C43.5258 28.5559 43.6983 28.6511 43.8761 28.7363C45.0194 29.2834 46.1453 29.4467 46.7004 29.391Z" fill="#69C9D0"/>
<g filter="url(#filter2_f_1_545)">
<ellipse cx="36.5" cy="59.9" rx="11.5" ry="6.5" fill="#ED2256"/>
</g>
</g>
<rect x="12" y="12.4" width="48" height="48" rx="12" stroke="url(#paint1_linear_1_545)" stroke-opacity="0.5" stroke-width="0.8" shape-rendering="crispEdges"/>
</g>
<g filter="url(#filter3_f_1_545)" style="mix-blend-mode:screen">
<circle cx="29" cy="29.4" r="9" fill="white" fill-opacity="0.18"/>
</g>
<defs>
<filter id="filter0_di_1_545" x="-8.39999" y="-8" width="92.8" height="88.8" filterUnits="userSpaceOnUse" color-interpolation-filters="sRGB">
<feFlood flood-opacity="0" result="BackgroundImageFix"/>
<feColorMatrix in="SourceAlpha" type="matrix" values="0 0 0 0 0 0 0 0 0 0 0 0 0 0 0 0 0 0 127 0" result="hardAlpha"/>
<feOffset dx="8" dy="4"/>
<feGaussianBlur stdDeviation="8"/>
<feComposite in2="hardAlpha" operator="out"/>
<feColorMatrix type="matrix" values="0 0 0 0 0 0 0 0 0 0 0 0 0 0 0 0 0 0 0.08 0"/>
<feBlend mode="normal" in2="BackgroundImageFix" result="effect1_dropShadow_1_545"/>
<feBlend mode="normal" in="SourceGraphic" in2="effect1_dropShadow_1_545" result="shape"/>
<feColorMatrix in="SourceAlpha" type="matrix" values="0 0 0 0 0 0 0 0 0 0 0 0 0 0 0 0 0 0 127 0" result="hardAlpha"/>
<feOffset/>
<feGaussianBlur stdDeviation="4"/>
<feComposite in2="hardAlpha" operator="arithmetic" k2="-1" k3="1"/>
<feColorMatrix type="matrix" values="0 0 0 0 0.0323264 0 0 0 0 0.511567 0 0 0 0 0.554167 0 0 0 1 0"/>
<feBlend mode="normal" in2="shape" result="effect2_innerShadow_1_545"/>
</filter>
<clipPath id="bgblur_1_1_545_clip_path" transform="translate(8.39999 8)"><rect x="12" y="12.4" width="48" height="48" rx="12"/>
</clipPath><filter id="filter1_f_1_545" x="8" y="8.39999" width="56" height="56" filterUnits="userSpaceOnUse" color-interpolation-filters="sRGB">
<feFlood flood-opacity="0" result="BackgroundImageFix"/>
<feBlend mode="normal" in="SourceGraphic" in2="BackgroundImageFix" result="shape"/>
<feGaussianBlur stdDeviation="6" result="effect1_foregroundBlur_1_545"/>
</filter>
<filter id="filter2_f_1_545" x="7" y="35.4" width="59" height="49" filterUnits="userSpaceOnUse" color-interpolation-filters="sRGB">
<feFlood flood-opacity="0" result="BackgroundImageFix"/>
<feBlend mode="normal" in="SourceGraphic" in2="BackgroundImageFix" result="shape"/>
<feGaussianBlur stdDeviation="9" result="effect1_foregroundBlur_1_545"/>
</filter>
<filter id="filter3_f_1_545" x="0" y="0.399994" width="58" height="58" filterUnits="userSpaceOnUse" color-interpolation-filters="sRGB">
<feFlood flood-opacity="0" result="BackgroundImageFix"/>
<feBlend mode="normal" in="SourceGraphic" in2="BackgroundImageFix" result="shape"/>
<feGaussianBlur stdDeviation="10" result="effect1_foregroundBlur_1_545"/>
</filter>
<linearGradient id="paint0_linear_1_545" x1="12" y1="12.4" x2="60" y2="60.4" gradientUnits="userSpaceOnUse">
<stop stop-color="#F8FBFF"/>
<stop offset="1" stop-color="white" stop-opacity="0"/>
</linearGradient>
<linearGradient id="paint1_linear_1_545" x1="13" y1="11.4" x2="58.5" y2="60.4" gradientUnits="userSpaceOnUse">
<stop stop-color="#D8D8D8" stop-opacity="0.05"/>
<stop offset="1" stop-color="white" stop-opacity="0.4"/>
</linearGradient>
<clipPath id="clip0_1_545">
<rect x="12" y="12.4" width="48" height="48" rx="12" fill="white"/>
</clipPath>
</defs>
</svg>
