<svg width="44" height="44" viewBox="0 0 44 44" fill="none" xmlns="http://www.w3.org/2000/svg">
<g clip-path="url(#clip0_2002_249)">
<path d="M16 28.9999C16 30.1045 16.8954 30.9999 18 30.9999H26C27.1046 30.9999 28 30.1045 28 28.9999V17.4999C28 17.2238 28.2239 16.9999 28.5 16.9999H33.1716C34.9534 16.9999 35.8457 14.8457 34.5858 13.5857L23.4142 2.41415C22.6332 1.63311 21.3668 1.63311 20.5858 2.41416L9.41421 13.5857C8.15428 14.8457 9.04662 16.9999 10.8284 16.9999H15.5C15.7761 16.9999 16 17.2238 16 17.4999V28.9999Z" fill="#46C05B"/>
<foreignObject x="-8" y="16" width="60" height="36"><div xmlns="http://www.w3.org/1999/xhtml" style="backdrop-filter:blur(5px);clip-path:url(#bgblur_1_2002_249_clip_path);height:100%;width:100%"></div></foreignObject><g filter="url(#filter0_din_2002_249)" data-figma-bg-blur-radius="10">
<path d="M2 30C2 27.7909 3.79086 26 6 26H38C40.2091 26 42 27.7909 42 30V38C42 40.2091 40.2091 42 38 42H6C3.79086 42 2 40.2091 2 38V30Z" fill="url(#paint0_linear_2002_249)" shape-rendering="crispEdges"/>
<path d="M2 30C2 27.7909 3.79086 26 6 26H38C40.2091 26 42 27.7909 42 30V38C42 40.2091 40.2091 42 38 42H6C3.79086 42 2 40.2091 2 38V30Z" fill="#46C05B" fill-opacity="0.25" shape-rendering="crispEdges"/>
<path d="M6 26.0996H38C40.1539 26.0996 41.9004 27.8461 41.9004 30V38C41.9004 40.1539 40.1539 41.9004 38 41.9004H6C3.84609 41.9004 2.09961 40.1539 2.09961 38V30C2.09961 27.8461 3.84609 26.0996 6 26.0996Z" stroke="url(#paint1_linear_2002_249)" stroke-width="0.2" shape-rendering="crispEdges"/>
</g>
</g>
<defs>
<filter id="filter0_din_2002_249" x="-8" y="16" width="60" height="36" filterUnits="userSpaceOnUse" color-interpolation-filters="sRGB">
<feFlood flood-opacity="0" result="BackgroundImageFix"/>
<feColorMatrix in="SourceAlpha" type="matrix" values="0 0 0 0 0 0 0 0 0 0 0 0 0 0 0 0 0 0 127 0" result="hardAlpha"/>
<feOffset dy="1"/>
<feGaussianBlur stdDeviation="2"/>
<feComposite in2="hardAlpha" operator="out"/>
<feColorMatrix type="matrix" values="0 0 0 0 0 0 0 0 0 0 0 0 0 0 0 0 0 0 0.12 0"/>
<feBlend mode="normal" in2="BackgroundImageFix" result="effect1_dropShadow_2002_249"/>
<feBlend mode="normal" in="SourceGraphic" in2="BackgroundImageFix" result="shape"/>
<feColorMatrix in="SourceAlpha" type="matrix" values="0 0 0 0 0 0 0 0 0 0 0 0 0 0 0 0 0 0 127 0" result="hardAlpha"/>
<feOffset dy="1"/>
<feGaussianBlur stdDeviation="1.5"/>
<feComposite in2="hardAlpha" operator="arithmetic" k2="-1" k3="1"/>
<feColorMatrix type="matrix" values="0 0 0 0 1 0 0 0 0 1 0 0 0 0 1 0 0 0 0.1 0"/>
<feBlend mode="normal" in2="shape" result="effect2_innerShadow_2002_249"/>
<feTurbulence type="fractalNoise" baseFrequency="10 10" stitchTiles="stitch" numOctaves="3" result="noise" seed="4151" />
<feColorMatrix in="noise" type="luminanceToAlpha" result="alphaNoise" />
<feComponentTransfer in="alphaNoise" result="coloredNoise1">
<feFuncA type="discrete" tableValues="0 0 0 0 0 0 0 1 1 1 1 1 1 1 1 1 1 1 1 1 1 1 1 1 1 1 1 1 1 1 1 1 1 1 1 1 1 1 1 1 1 1 1 0 0 0 0 0 0 0 0 0 0 0 0 0 0 0 0 0 0 0 0 0 0 0 0 0 0 0 0 0 0 0 0 0 0 0 0 0 0 0 0 0 0 0 0 0 0 0 0 0 0 0 0 0 0 0 0 0 "/>
</feComponentTransfer>
<feComposite operator="in" in2="effect2_innerShadow_2002_249" in="coloredNoise1" result="noise1Clipped" />
<feFlood flood-color="rgba(0, 0, 0, 0.05)" result="color1Flood" />
<feComposite operator="in" in2="noise1Clipped" in="color1Flood" result="color1" />
<feMerge result="effect3_noise_2002_249">
<feMergeNode in="effect2_innerShadow_2002_249" />
<feMergeNode in="color1" />
</feMerge>
<feBlend mode="normal" in="effect3_noise_2002_249" in2="effect1_dropShadow_2002_249" result="effect3_noise_2002_249"/>
</filter>
<clipPath id="bgblur_1_2002_249_clip_path" transform="translate(8 -16)"><path d="M2 30C2 27.7909 3.79086 26 6 26H38C40.2091 26 42 27.7909 42 30V38C42 40.2091 40.2091 42 38 42H6C3.79086 42 2 40.2091 2 38V30Z"/>
</clipPath><linearGradient id="paint0_linear_2002_249" x1="22" y1="25.3333" x2="22" y2="42" gradientUnits="userSpaceOnUse">
<stop stop-color="white" stop-opacity="0.1"/>
<stop offset="1" stop-color="white" stop-opacity="0"/>
</linearGradient>
<linearGradient id="paint1_linear_2002_249" x1="22" y1="26" x2="22" y2="42" gradientUnits="userSpaceOnUse">
<stop stop-color="white" stop-opacity="0.15"/>
<stop offset="1" stop-color="white" stop-opacity="0"/>
</linearGradient>
<clipPath id="clip0_2002_249">
<rect width="44" height="44" fill="white"/>
</clipPath>
</defs>
</svg>
