<svg width="44" height="44" viewBox="0 0 44 44" fill="none" xmlns="http://www.w3.org/2000/svg">
<g clip-path="url(#clip0_2002_252)">
<path d="M32 12C32 17.5228 27.5228 22 22 22C16.4772 22 12 17.5228 12 12C12 6.47715 16.4772 2 22 2C27.5228 2 32 6.47715 32 12Z" fill="#009CFD"/>
<foreignObject x="-6.04774" y="6" width="56.0955" height="46"><div xmlns="http://www.w3.org/1999/xhtml" style="backdrop-filter:blur(5px);clip-path:url(#bgblur_1_2002_252_clip_path);height:100%;width:100%"></div></foreignObject><g filter="url(#filter0_din_2002_252)" data-figma-bg-blur-radius="10">
<path d="M4.16601 31.8945C5.21123 22.836 12.8813 16 22 16C31.1187 16 38.7888 22.836 39.834 31.8945L39.9952 33.2922C40.5305 37.9308 36.9038 42 32.2344 42H11.7656C7.09617 42 3.46952 37.9308 4.00475 33.2922L4.16601 31.8945Z" fill="url(#paint0_linear_2002_252)" shape-rendering="crispEdges"/>
<path d="M4.16601 31.8945C5.21123 22.836 12.8813 16 22 16C31.1187 16 38.7888 22.836 39.834 31.8945L39.9952 33.2922C40.5305 37.9308 36.9038 42 32.2344 42H11.7656C7.09617 42 3.46952 37.9308 4.00475 33.2922L4.16601 31.8945Z" fill="#009CFD" fill-opacity="0.25" shape-rendering="crispEdges"/>
<path d="M22.0001 16.0996C31.0679 16.0997 38.6951 22.8982 39.7345 31.9062L39.8956 33.3037C40.424 37.8829 36.8441 41.9003 32.2345 41.9004H11.7657C7.15612 41.9004 3.57534 37.8829 4.10363 33.3037L4.26574 31.9062C5.30514 22.8981 12.9322 16.0996 22.0001 16.0996Z" stroke="url(#paint1_linear_2002_252)" stroke-width="0.2" shape-rendering="crispEdges"/>
</g>
</g>
<defs>
<filter id="filter0_din_2002_252" x="-6.04774" y="6" width="56.0955" height="46" filterUnits="userSpaceOnUse" color-interpolation-filters="sRGB">
<feFlood flood-opacity="0" result="BackgroundImageFix"/>
<feColorMatrix in="SourceAlpha" type="matrix" values="0 0 0 0 0 0 0 0 0 0 0 0 0 0 0 0 0 0 127 0" result="hardAlpha"/>
<feOffset dy="1"/>
<feGaussianBlur stdDeviation="2"/>
<feComposite in2="hardAlpha" operator="out"/>
<feColorMatrix type="matrix" values="0 0 0 0 0 0 0 0 0 0 0 0 0 0 0 0 0 0 0.12 0"/>
<feBlend mode="normal" in2="BackgroundImageFix" result="effect1_dropShadow_2002_252"/>
<feBlend mode="normal" in="SourceGraphic" in2="BackgroundImageFix" result="shape"/>
<feColorMatrix in="SourceAlpha" type="matrix" values="0 0 0 0 0 0 0 0 0 0 0 0 0 0 0 0 0 0 127 0" result="hardAlpha"/>
<feOffset dy="1"/>
<feGaussianBlur stdDeviation="1.5"/>
<feComposite in2="hardAlpha" operator="arithmetic" k2="-1" k3="1"/>
<feColorMatrix type="matrix" values="0 0 0 0 1 0 0 0 0 1 0 0 0 0 1 0 0 0 0.1 0"/>
<feBlend mode="normal" in2="shape" result="effect2_innerShadow_2002_252"/>
<feTurbulence type="fractalNoise" baseFrequency="10 10" stitchTiles="stitch" numOctaves="3" result="noise" seed="4151" />
<feColorMatrix in="noise" type="luminanceToAlpha" result="alphaNoise" />
<feComponentTransfer in="alphaNoise" result="coloredNoise1">
<feFuncA type="discrete" tableValues="0 0 0 0 0 0 0 1 1 1 1 1 1 1 1 1 1 1 1 1 1 1 1 1 1 1 1 1 1 1 1 1 1 1 1 1 1 1 1 1 1 1 1 0 0 0 0 0 0 0 0 0 0 0 0 0 0 0 0 0 0 0 0 0 0 0 0 0 0 0 0 0 0 0 0 0 0 0 0 0 0 0 0 0 0 0 0 0 0 0 0 0 0 0 0 0 0 0 0 0 "/>
</feComponentTransfer>
<feComposite operator="in" in2="effect2_innerShadow_2002_252" in="coloredNoise1" result="noise1Clipped" />
<feFlood flood-color="rgba(0, 0, 0, 0.05)" result="color1Flood" />
<feComposite operator="in" in2="noise1Clipped" in="color1Flood" result="color1" />
<feMerge result="effect3_noise_2002_252">
<feMergeNode in="effect2_innerShadow_2002_252" />
<feMergeNode in="color1" />
</feMerge>
<feBlend mode="normal" in="effect3_noise_2002_252" in2="effect1_dropShadow_2002_252" result="effect3_noise_2002_252"/>
</filter>
<clipPath id="bgblur_1_2002_252_clip_path" transform="translate(6.04774 -6)"><path d="M4.16601 31.8945C5.21123 22.836 12.8813 16 22 16C31.1187 16 38.7888 22.836 39.834 31.8945L39.9952 33.2922C40.5305 37.9308 36.9038 42 32.2344 42H11.7656C7.09617 42 3.46952 37.9308 4.00475 33.2922L4.16601 31.8945Z"/>
</clipPath><linearGradient id="paint0_linear_2002_252" x1="22" y1="14.9167" x2="22" y2="42" gradientUnits="userSpaceOnUse">
<stop stop-color="white" stop-opacity="0.1"/>
<stop offset="1" stop-color="white" stop-opacity="0"/>
</linearGradient>
<linearGradient id="paint1_linear_2002_252" x1="22" y1="16" x2="22" y2="42" gradientUnits="userSpaceOnUse">
<stop stop-color="white" stop-opacity="0.15"/>
<stop offset="1" stop-color="white" stop-opacity="0"/>
</linearGradient>
<clipPath id="clip0_2002_252">
<rect width="44" height="44" fill="white"/>
</clipPath>
</defs>
</svg>
