<svg width="44" height="44" viewBox="0 0 44 44" fill="none" xmlns="http://www.w3.org/2000/svg">
<g clip-path="url(#clip0_2002_262)">
<g filter="url(#filter0_n_2002_262)">
<path d="M33.7939 12.1071C34.2867 11.4415 35.2267 11.3011 35.8926 11.7936C38.8878 14.0095 41.4999 17.5559 41.5 22.9997C41.5 28.4436 38.8877 31.9898 35.8926 34.2057C35.2267 34.6984 34.2867 34.5581 33.7939 33.8923C33.3015 33.2263 33.4417 32.2863 34.1074 31.7936C36.492 30.0295 38.5 27.316 38.5 22.9997C38.4999 18.6834 36.492 15.9698 34.1074 14.2057C33.4417 13.713 33.3013 12.773 33.7939 12.1071Z" fill="#B700FF"/>
<path d="M30.416 18.1071C30.9087 17.4415 31.8488 17.3012 32.5146 17.7936C33.8959 18.8155 35.122 20.484 35.1221 22.9997C35.1221 25.5155 33.8959 27.1838 32.5146 28.2057C31.8487 28.6984 30.9088 28.5581 30.416 27.8923C29.9236 27.2264 30.0638 26.2863 30.7295 25.7936C31.5001 25.2235 32.1221 24.3879 32.1221 22.9997C32.122 21.6116 31.5001 20.7758 30.7295 20.2057C30.0639 19.7129 29.9234 18.7729 30.416 18.1071Z" fill="#B700FF"/>
<path d="M13 27.9997H8C5.79086 27.9997 4 26.2088 4 23.9997V19.9997C4.00016 17.7907 5.79096 15.9997 8 15.9997H13V27.9997Z" fill="#B700FF"/>
<path d="M23.916 20.1071C24.4087 19.4415 25.3488 19.3012 26.0146 19.7936C26.8579 20.4175 27.622 21.4601 27.6221 22.9997C27.6221 24.5394 26.8579 25.5818 26.0146 26.2057C25.3487 26.6984 24.4088 26.5581 23.916 25.8923C23.4236 25.2264 23.5638 24.2863 24.2295 23.7936C24.3621 23.6955 24.4544 23.5935 24.5137 23.487C24.5686 23.3882 24.6221 23.2395 24.6221 22.9997C24.622 22.7599 24.5686 22.6111 24.5137 22.5124C24.4544 22.406 24.362 22.3037 24.2295 22.2057C23.5639 21.7129 23.4234 20.7729 23.916 20.1071Z" fill="#B700FF"/>
</g>
<foreignObject x="-2" y="-5.0072" width="40" height="54.0145"><div xmlns="http://www.w3.org/1999/xhtml" style="backdrop-filter:blur(5px);clip-path:url(#bgblur_1_2002_262_clip_path);height:100%;width:100%"></div></foreignObject><g filter="url(#filter1_din_2002_262)" data-figma-bg-blur-radius="10">
<path d="M21.6 38.2001L8 28.0001V16.0001L21.6 5.80006C24.2369 3.82235 28 5.70388 28 9.00006V35.0001C28 38.2962 24.2369 40.1778 21.6 38.2001Z" fill="url(#paint0_linear_2002_262)" shape-rendering="crispEdges"/>
<path d="M21.6 38.2001L8 28.0001V16.0001L21.6 5.80006C24.2369 3.82235 28 5.70388 28 9.00006V35.0001C28 38.2962 24.2369 40.1778 21.6 38.2001Z" fill="#B700FF" fill-opacity="0.25" shape-rendering="crispEdges"/>
<path d="M21.6602 5.88049C24.2311 3.95231 27.9001 5.78612 27.9004 8.99963V34.9996C27.9004 38.2134 24.2312 40.048 21.6602 38.1198L8.09961 27.9498V16.0494L21.6602 5.88049Z" stroke="url(#paint1_linear_2002_262)" stroke-width="0.2" shape-rendering="crispEdges"/>
</g>
</g>
<defs>
<filter id="filter0_n_2002_262" x="4" y="11.4995" width="37.5" height="23.0005" filterUnits="userSpaceOnUse" color-interpolation-filters="sRGB">
<feFlood flood-opacity="0" result="BackgroundImageFix"/>
<feBlend mode="normal" in="SourceGraphic" in2="BackgroundImageFix" result="shape"/>
<feTurbulence type="fractalNoise" baseFrequency="10 10" stitchTiles="stitch" numOctaves="3" result="noise" seed="4151" />
<feColorMatrix in="noise" type="luminanceToAlpha" result="alphaNoise" />
<feComponentTransfer in="alphaNoise" result="coloredNoise1">
<feFuncA type="discrete" tableValues="0 0 0 0 0 0 0 1 1 1 1 1 1 1 1 1 1 1 1 1 1 1 1 1 1 1 1 1 1 1 1 1 1 1 1 1 1 1 1 1 1 1 1 0 0 0 0 0 0 0 0 0 0 0 0 0 0 0 0 0 0 0 0 0 0 0 0 0 0 0 0 0 0 0 0 0 0 0 0 0 0 0 0 0 0 0 0 0 0 0 0 0 0 0 0 0 0 0 0 0 "/>
</feComponentTransfer>
<feComposite operator="in" in2="shape" in="coloredNoise1" result="noise1Clipped" />
<feFlood flood-color="rgba(0, 0, 0, 0.05)" result="color1Flood" />
<feComposite operator="in" in2="noise1Clipped" in="color1Flood" result="color1" />
<feMerge result="effect1_noise_2002_262">
<feMergeNode in="shape" />
<feMergeNode in="color1" />
</feMerge>
</filter>
<filter id="filter1_din_2002_262" x="-2" y="-5.0072" width="40" height="54.0145" filterUnits="userSpaceOnUse" color-interpolation-filters="sRGB">
<feFlood flood-opacity="0" result="BackgroundImageFix"/>
<feColorMatrix in="SourceAlpha" type="matrix" values="0 0 0 0 0 0 0 0 0 0 0 0 0 0 0 0 0 0 127 0" result="hardAlpha"/>
<feOffset dy="1"/>
<feGaussianBlur stdDeviation="2"/>
<feComposite in2="hardAlpha" operator="out"/>
<feColorMatrix type="matrix" values="0 0 0 0 0 0 0 0 0 0 0 0 0 0 0 0 0 0 0.12 0"/>
<feBlend mode="normal" in2="BackgroundImageFix" result="effect1_dropShadow_2002_262"/>
<feBlend mode="normal" in="SourceGraphic" in2="BackgroundImageFix" result="shape"/>
<feColorMatrix in="SourceAlpha" type="matrix" values="0 0 0 0 0 0 0 0 0 0 0 0 0 0 0 0 0 0 127 0" result="hardAlpha"/>
<feOffset dy="1"/>
<feGaussianBlur stdDeviation="1.5"/>
<feComposite in2="hardAlpha" operator="arithmetic" k2="-1" k3="1"/>
<feColorMatrix type="matrix" values="0 0 0 0 1 0 0 0 0 1 0 0 0 0 1 0 0 0 0.1 0"/>
<feBlend mode="normal" in2="shape" result="effect2_innerShadow_2002_262"/>
<feTurbulence type="fractalNoise" baseFrequency="10 10" stitchTiles="stitch" numOctaves="3" result="noise" seed="4151" />
<feColorMatrix in="noise" type="luminanceToAlpha" result="alphaNoise" />
<feComponentTransfer in="alphaNoise" result="coloredNoise1">
<feFuncA type="discrete" tableValues="0 0 0 0 0 0 0 1 1 1 1 1 1 1 1 1 1 1 1 1 1 1 1 1 1 1 1 1 1 1 1 1 1 1 1 1 1 1 1 1 1 1 1 0 0 0 0 0 0 0 0 0 0 0 0 0 0 0 0 0 0 0 0 0 0 0 0 0 0 0 0 0 0 0 0 0 0 0 0 0 0 0 0 0 0 0 0 0 0 0 0 0 0 0 0 0 0 0 0 0 "/>
</feComponentTransfer>
<feComposite operator="in" in2="effect2_innerShadow_2002_262" in="coloredNoise1" result="noise1Clipped" />
<feFlood flood-color="rgba(0, 0, 0, 0.05)" result="color1Flood" />
<feComposite operator="in" in2="noise1Clipped" in="color1Flood" result="color1" />
<feMerge result="effect3_noise_2002_262">
<feMergeNode in="effect2_innerShadow_2002_262" />
<feMergeNode in="color1" />
</feMerge>
<feBlend mode="normal" in="effect3_noise_2002_262" in2="effect1_dropShadow_2002_262" result="effect3_noise_2002_262"/>
</filter>
<clipPath id="bgblur_1_2002_262_clip_path" transform="translate(2 5.0072)"><path d="M21.6 38.2001L8 28.0001V16.0001L21.6 5.80006C24.2369 3.82235 28 5.70388 28 9.00006V35.0001C28 38.2962 24.2369 40.1778 21.6 38.2001Z"/>
</clipPath><linearGradient id="paint0_linear_2002_262" x1="16" y1="-0.750001" x2="16" y2="43" gradientUnits="userSpaceOnUse">
<stop stop-color="white" stop-opacity="0.1"/>
<stop offset="1" stop-color="white" stop-opacity="0"/>
</linearGradient>
<linearGradient id="paint1_linear_2002_262" x1="18" y1="4.9928" x2="18" y2="39.0073" gradientUnits="userSpaceOnUse">
<stop stop-color="white" stop-opacity="0.15"/>
<stop offset="1" stop-color="white" stop-opacity="0"/>
</linearGradient>
<clipPath id="clip0_2002_262">
<rect width="44" height="44" fill="white"/>
</clipPath>
</defs>
</svg>
