<?xml version="1.0" standalone="no"?>
<!DOCTYPE svg PUBLIC "-//W3C//DTD SVG 20010904//EN"
 "http://www.w3.org/TR/2001/REC-SVG-20010904/DTD/svg10.dtd">
<svg version="1.0" xmlns="http://www.w3.org/2000/svg"
 width="1254.000000pt" height="1254.000000pt" viewBox="0 0 1254.000000 1254.000000"
 preserveAspectRatio="xMidYMid meet">

<g transform="translate(0.000000,1254.000000) scale(0.100000,-0.100000)"
fill="#000000" stroke="none">
<path d="M5208 9233 c7 -3 16 -2 19 1 4 3 -2 6 -13 5 -11 0 -14 -3 -6 -6z"/>
<path d="M4858 9213 c7 -3 16 -2 19 1 4 3 -2 6 -13 5 -11 0 -14 -3 -6 -6z"/>
<path d="M4823 9049 c-35 -22 -46 -37 -15 -20 22 13 58 40 52 41 -3 0 -20 -10
-37 -21z"/>
<path d="M4656 8985 c-15 -8 -21 -20 -20 -41 1 -21 -5 -35 -18 -43 -11 -7 -18
-8 -14 -3 3 5 -6 14 -20 21 -29 13 -74 15 -74 3 0 -4 -15 -9 -32 -10 -43 -3
-75 -20 -113 -58 -17 -17 -45 -35 -63 -39 -21 -4 -37 -16 -47 -35 -8 -16 -21
-27 -28 -25 -6 3 -24 -6 -39 -20 -15 -14 -32 -25 -39 -25 -13 0 -26 -14 -106
-112 -31 -38 -58 -68 -62 -68 -3 0 -12 -12 -18 -27 -11 -25 -36 -57 -94 -121
-11 -12 -22 -34 -23 -47 -2 -14 -6 -28 -9 -32 -4 -3 -7 -12 -7 -18 0 -7 -18
-31 -41 -53 -22 -23 -38 -46 -34 -52 4 -6 0 -22 -9 -35 -9 -13 -16 -31 -16
-40 0 -8 -4 -15 -10 -15 -5 0 -10 -8 -10 -17 0 -15 -2 -16 -10 -3 -7 11 -10 5
-10 -22 0 -21 -4 -38 -10 -38 -5 0 -10 -6 -10 -13 0 -7 -9 -20 -20 -30 -11 -9
-20 -24 -20 -32 0 -8 -4 -15 -9 -15 -5 0 -11 -10 -15 -22 -3 -13 -21 -49 -41
-82 -19 -32 -35 -69 -35 -81 0 -13 -4 -25 -8 -27 -12 -4 -62 -134 -62 -159 0
-11 -7 -59 -15 -107 -9 -48 -20 -114 -26 -147 -14 -84 -37 -293 -44 -400 -4
-49 -11 -115 -16 -145 -5 -30 -11 -188 -14 -350 -2 -162 -7 -333 -10 -380 -16
-268 -22 -849 -10 -1045 8 -151 37 -363 55 -410 6 -15 17 -61 26 -103 28 -136
148 -371 263 -517 86 -109 256 -274 375 -363 228 -173 511 -280 835 -317 125
-15 228 -16 745 -12 331 3 664 10 741 16 693 50 872 63 891 61 62 -7 92 1 133
36 38 33 69 45 146 58 11 1 36 8 56 15 20 6 41 11 45 10 5 -1 20 2 32 6 18 6
20 10 10 16 -9 6 -9 9 -1 9 6 0 14 -4 18 -10 3 -5 20 -1 40 10 19 11 35 16 35
12 0 -4 4 -2 8 4 9 14 112 67 112 58 0 -4 6 -2 13 3 6 6 30 16 52 22 22 7 62
24 89 38 44 23 161 70 192 76 7 2 19 9 28 16 9 7 16 10 16 7 0 -10 41 13 85
50 22 17 69 46 105 63 77 36 144 90 289 231 82 81 119 127 161 198 30 51 65
110 77 130 13 20 23 44 23 52 0 8 23 48 50 89 28 41 50 80 50 88 0 7 9 32 20
53 32 62 16 47 -41 -37 -161 -240 -379 -440 -619 -570 -226 -123 -503 -199
-845 -233 -175 -18 -845 -24 -1072 -10 -393 24 -576 53 -912 147 -227 63 -237
62 -531 -56 -124 -49 -274 -104 -335 -122 -283 -83 -386 -11 -271 189 60 104
121 236 135 294 29 120 7 170 -138 323 -251 263 -401 513 -516 860 -114 344
-148 612 -148 1180 -1 705 48 1061 202 1447 47 119 132 283 201 387 48 73 59
96 48 103 -10 8 -9 9 4 5 12 -4 33 14 74 64 32 39 107 118 168 176 61 58 110
109 109 114 -2 5 3 6 10 4 6 -3 29 10 50 28 l38 32 -36 0 c-21 1 -47 -4 -59
-10z"/>
<path d="M2472 7775 c0 -16 2 -22 5 -12 2 9 2 23 0 30 -3 6 -5 -1 -5 -18z"/>
<path d="M2473 7580 c0 -30 2 -43 4 -27 2 15 2 39 0 55 -2 15 -4 2 -4 -28z"/>
<path d="M3221 7514 c0 -11 3 -14 6 -6 3 7 2 16 -1 19 -3 4 -6 -2 -5 -13z"/>
<path d="M4664 7250 c-12 -4 -31 -21 -43 -36 -12 -15 -21 -21 -22 -13 0 8 -5
3 -10 -11 -16 -38 -13 -85 6 -114 37 -55 42 -56 455 -56 261 0 380 -3 380 -11
0 -5 5 -7 11 -3 23 14 -26 -56 -75 -109 -28 -29 -45 -45 -37 -35 8 10 12 18 9
18 -3 0 -32 -33 -64 -72 -31 -40 -45 -62 -29 -48 28 24 28 24 -4 -17 -32 -42
-56 -61 -31 -25 62 89 -460 -551 -571 -700 -68 -92 -80 -138 -52 -195 10 -20
31 -46 46 -57 28 -20 41 -21 548 -24 328 -2 534 1 557 8 115 30 137 181 35
247 -25 16 -61 18 -405 21 -208 2 -378 5 -378 8 0 6 240 308 575 724 153 191
183 232 153 214 -7 -4 -8 -3 -4 5 4 6 11 9 16 6 12 -8 97 104 104 136 6 29
-29 104 -61 131 -13 10 -120 13 -552 15 -295 1 -546 -2 -557 -7z m646 -423 c0
-2 -10 -12 -22 -23 l-23 -19 19 23 c18 21 26 27 26 19z"/>
<path d="M7351 7246 c-44 -24 -50 -50 -53 -226 l-2 -165 -6 175 c-5 171 -5
168 -12 -150 -5 -179 -8 -482 -8 -675 0 -385 1 -394 63 -439 35 -26 108 -27
154 -3 64 34 63 20 62 609 -1 293 -5 517 -8 498 -4 -20 -10 41 -13 147 -5 118
-12 189 -20 202 -24 39 -110 53 -157 27z"/>
<path d="M3212 6090 c-1 -700 2 -1179 8 -1250 22 -246 66 -410 171 -628 234
-491 667 -847 1210 -996 241 -66 278 -68 1224 -73 474 -3 846 -1 842 3 -5 5
-390 12 -855 15 -540 4 -874 11 -922 18 -390 58 -654 164 -938 375 -339 252
-593 644 -679 1046 -44 209 -46 264 -52 1470 l-7 1155 -2 -1135z"/>
<path d="M6410 6870 c-146 -17 -286 -99 -370 -216 -19 -25 -47 -44 -36 -23 4
8 -1 3 -13 -11 -20 -25 -50 -99 -70 -175 -29 -109 1 -303 63 -410 42 -70 137
-166 207 -208 179 -106 410 -110 570 -9 l44 28 15 -30 c33 -65 122 -91 194
-55 57 27 70 66 70 218 2 312 -8 822 -14 776 l-7 -50 -1 47 c-3 91 -38 125
-125 121 -35 -2 -57 -9 -72 -23 -17 -16 -24 -18 -27 -8 -3 8 -10 1 -19 -16 -8
-16 -20 -32 -28 -34 -9 -3 -11 0 -6 8 5 8 4 11 -2 7 -6 -4 -46 9 -89 27 -88
39 -175 49 -284 36z m215 -258 c64 -31 111 -77 147 -145 19 -35 23 -58 23
-137 0 -79 -4 -102 -23 -137 -35 -67 -79 -110 -144 -143 -111 -55 -244 -37
-336 45 -26 23 -58 64 -72 91 -21 42 -25 63 -25 144 0 86 3 100 27 142 45 75
75 105 140 137 85 43 176 44 263 3z"/>
<path d="M8160 6856 c-155 -58 -162 -62 -239 -131 -18 -16 -39 -30 -46 -30
-15 0 -45 -24 -45 -37 0 -5 5 -6 12 -2 7 4 8 3 4 -5 -4 -6 -11 -9 -16 -6 -12
7 -33 -32 -25 -45 4 -6 1 -9 -6 -8 -8 2 -24 -30 -43 -82 -26 -75 -30 -98 -29
-190 0 -86 5 -118 25 -177 85 -240 300 -395 549 -395 173 0 299 52 419 172 82
82 128 162 156 272 24 93 15 241 -20 333 -15 38 -32 74 -37 80 -6 5 -4 -7 5
-29 23 -55 19 -58 -9 -6 -27 50 -30 65 -14 54 8 -4 8 0 0 15 -14 25 -23 28
-14 4 8 -22 3 -18 -95 77 -74 71 -131 103 -166 94 -31 -8 -58 6 -31 16 15 5 8
10 -30 23 -60 21 -252 23 -305 3z m-290 -176 c0 -5 -5 -10 -11 -10 -5 0 -7 5
-4 10 3 6 8 10 11 10 2 0 4 -4 4 -10z m527 -34 c22 -8 52 -25 67 -39 15 -14
33 -24 39 -22 14 5 35 -10 65 -49 24 -32 29 -51 10 -40 -10 6 -10 5 -1 -7 23
-29 46 -131 40 -185 -23 -222 -248 -350 -443 -254 -119 58 -179 164 -172 300
5 82 20 120 76 189 33 41 57 55 182 109 35 15 91 14 137 -2z"/>
<path d="M8540 6536 c0 -2 8 -10 18 -17 15 -13 16 -12 3 4 -13 16 -21 21 -21
13z"/>
<path d="M6019 6663 c-13 -16 -12 -17 4 -4 9 7 17 15 17 17 0 8 -8 3 -21 -13z"/>
<path d="M9242 4904 c-7 -23 -14 -79 -16 -125 -2 -46 -11 -115 -20 -153 -9
-38 -14 -71 -12 -73 11 -12 70 328 64 371 -2 15 -6 10 -16 -20z"/>
<path d="M9165 4739 c-4 -6 -5 -12 -2 -15 2 -3 7 2 10 11 7 17 1 20 -8 4z"/>
<path d="M9181 4524 c0 -11 3 -14 6 -6 3 7 2 16 -1 19 -3 4 -6 -2 -5 -13z"/>
<path d="M2720 3260 c6 -11 13 -20 16 -20 2 0 0 9 -6 20 -6 11 -13 20 -16 20
-2 0 0 -9 6 -20z"/>
<path d="M6808 3153 c12 -2 30 -2 40 0 9 3 -1 5 -23 4 -22 0 -30 -2 -17 -4z"/>
<path d="M3170 2716 c0 -2 8 -10 18 -17 15 -13 16 -12 3 4 -13 16 -21 21 -21
13z"/>
<path d="M3460 2516 c0 -3 9 -10 20 -16 11 -6 20 -8 20 -6 0 3 -9 10 -20 16
-11 6 -20 8 -20 6z"/>
</g>
</svg>
