<svg width="44" height="44" viewBox="0 0 44 44" fill="none" xmlns="http://www.w3.org/2000/svg">
<g clip-path="url(#clip0_2002_48)">
<foreignObject x="-5" y="-6" width="54" height="36"><div xmlns="http://www.w3.org/1999/xhtml" style="backdrop-filter:blur(5px);clip-path:url(#bgblur_1_2002_48_clip_path);height:100%;width:100%"></div></foreignObject><g filter="url(#filter0_din_2002_48)" data-figma-bg-blur-radius="10">
<path d="M31 4H13C8.58172 4 5 7.58172 5 12V20H39V12C39 7.58172 35.4183 4 31 4Z" fill="#FD3300"/>
</g>
<foreignObject x="-5.69219" y="4.5" width="55.3844" height="45.5"><div xmlns="http://www.w3.org/1999/xhtml" style="backdrop-filter:blur(5px);clip-path:url(#bgblur_2_2002_48_clip_path);height:100%;width:100%"></div></foreignObject><g filter="url(#filter1_din_2002_48)" data-figma-bg-blur-radius="10">
<path d="M31.6921 40H12.3079C7.77122 40 4.14237 36.2315 4.31363 31.698L4.9 16.1765V14.5H39.1V16.1765L39.6864 31.698C39.8576 36.2315 36.2288 40 31.6921 40Z" fill="url(#paint0_linear_2002_48)" shape-rendering="crispEdges"/>
<path d="M31.6921 40H12.3079C7.77122 40 4.14237 36.2315 4.31363 31.698L4.9 16.1765V14.5H39.1V16.1765L39.6864 31.698C39.8576 36.2315 36.2288 40 31.6921 40Z" fill="#FD4300" fill-opacity="0.25" shape-rendering="crispEdges"/>
<path d="M39.0002 14.5996V16.1807L39.5861 31.7021C39.755 36.1788 36.1715 39.9004 31.6916 39.9004H12.3078C7.82799 39.9003 4.24438 36.1787 4.41328 31.7021L5.00019 16.1807V14.5996H39.0002Z" stroke="url(#paint1_linear_2002_48)" stroke-width="0.2" shape-rendering="crispEdges"/>
</g>
<g opacity="0.8">
<path d="M22.0498 20.5996C22.5469 19.937 23.4877 19.8028 24.1504 20.2998C24.813 20.7969 24.9472 21.7377 24.4502 22.4004L18.75 30V30.5H21.75V28.5C21.75 27.6716 22.4216 27 23.25 27C24.0784 27 24.75 27.6716 24.75 28.5V30.5H26.75C27.5784 30.5 28.25 31.1716 28.25 32C28.25 32.8284 27.5784 33.5 26.75 33.5H24.75V35.5C24.75 36.3284 24.0784 37 23.25 37C22.4216 37 21.75 36.3284 21.75 35.5V33.5H17.25C16.4216 33.5 15.75 32.8284 15.75 32V29.5C15.75 29.1754 15.8551 28.8593 16.0498 28.5996L22.0498 20.5996Z" fill="url(#paint2_linear_2002_48)"/>
<path d="M39.0996 16.1768L39.1494 17.5H4.85059L4.90039 16.1768V14.5H39.0996V16.1768Z" fill="url(#paint3_linear_2002_48)"/>
</g>
</g>
<defs>
<filter id="filter0_din_2002_48" x="-5" y="-6" width="54" height="36" filterUnits="userSpaceOnUse" color-interpolation-filters="sRGB">
<feFlood flood-opacity="0" result="BackgroundImageFix"/>
<feColorMatrix in="SourceAlpha" type="matrix" values="0 0 0 0 0 0 0 0 0 0 0 0 0 0 0 0 0 0 127 0" result="hardAlpha"/>
<feOffset dy="1"/>
<feGaussianBlur stdDeviation="2"/>
<feComposite in2="hardAlpha" operator="out"/>
<feColorMatrix type="matrix" values="0 0 0 0 0 0 0 0 0 0 0 0 0 0 0 0 0 0 0.12 0"/>
<feBlend mode="normal" in2="BackgroundImageFix" result="effect1_dropShadow_2002_48"/>
<feBlend mode="normal" in="SourceGraphic" in2="BackgroundImageFix" result="shape"/>
<feColorMatrix in="SourceAlpha" type="matrix" values="0 0 0 0 0 0 0 0 0 0 0 0 0 0 0 0 0 0 127 0" result="hardAlpha"/>
<feOffset dy="1"/>
<feGaussianBlur stdDeviation="1.5"/>
<feComposite in2="hardAlpha" operator="arithmetic" k2="-1" k3="1"/>
<feColorMatrix type="matrix" values="0 0 0 0 1 0 0 0 0 1 0 0 0 0 1 0 0 0 0.1 0"/>
<feBlend mode="normal" in2="shape" result="effect2_innerShadow_2002_48"/>
<feTurbulence type="fractalNoise" baseFrequency="10 10" stitchTiles="stitch" numOctaves="3" result="noise" seed="4151" />
<feColorMatrix in="noise" type="luminanceToAlpha" result="alphaNoise" />
<feComponentTransfer in="alphaNoise" result="coloredNoise1">
<feFuncA type="discrete" tableValues="0 0 0 0 0 0 0 1 1 1 1 1 1 1 1 1 1 1 1 1 1 1 1 1 1 1 1 1 1 1 1 1 1 1 1 1 1 1 1 1 1 1 1 0 0 0 0 0 0 0 0 0 0 0 0 0 0 0 0 0 0 0 0 0 0 0 0 0 0 0 0 0 0 0 0 0 0 0 0 0 0 0 0 0 0 0 0 0 0 0 0 0 0 0 0 0 0 0 0 0 "/>
</feComponentTransfer>
<feComposite operator="in" in2="effect2_innerShadow_2002_48" in="coloredNoise1" result="noise1Clipped" />
<feFlood flood-color="rgba(0, 0, 0, 0.05)" result="color1Flood" />
<feComposite operator="in" in2="noise1Clipped" in="color1Flood" result="color1" />
<feMerge result="effect3_noise_2002_48">
<feMergeNode in="effect2_innerShadow_2002_48" />
<feMergeNode in="color1" />
</feMerge>
<feBlend mode="normal" in="effect3_noise_2002_48" in2="effect1_dropShadow_2002_48" result="effect3_noise_2002_48"/>
</filter>
<clipPath id="bgblur_1_2002_48_clip_path" transform="translate(5 6)"><path d="M31 4H13C8.58172 4 5 7.58172 5 12V20H39V12C39 7.58172 35.4183 4 31 4Z"/>
</clipPath><filter id="filter1_din_2002_48" x="-5.69219" y="4.5" width="55.3844" height="45.5" filterUnits="userSpaceOnUse" color-interpolation-filters="sRGB">
<feFlood flood-opacity="0" result="BackgroundImageFix"/>
<feColorMatrix in="SourceAlpha" type="matrix" values="0 0 0 0 0 0 0 0 0 0 0 0 0 0 0 0 0 0 127 0" result="hardAlpha"/>
<feOffset dy="1"/>
<feGaussianBlur stdDeviation="2"/>
<feComposite in2="hardAlpha" operator="out"/>
<feColorMatrix type="matrix" values="0 0 0 0 0 0 0 0 0 0 0 0 0 0 0 0 0 0 0.12 0"/>
<feBlend mode="normal" in2="BackgroundImageFix" result="effect1_dropShadow_2002_48"/>
<feBlend mode="normal" in="SourceGraphic" in2="BackgroundImageFix" result="shape"/>
<feColorMatrix in="SourceAlpha" type="matrix" values="0 0 0 0 0 0 0 0 0 0 0 0 0 0 0 0 0 0 127 0" result="hardAlpha"/>
<feOffset dy="1"/>
<feGaussianBlur stdDeviation="1.5"/>
<feComposite in2="hardAlpha" operator="arithmetic" k2="-1" k3="1"/>
<feColorMatrix type="matrix" values="0 0 0 0 1 0 0 0 0 1 0 0 0 0 1 0 0 0 0.1 0"/>
<feBlend mode="normal" in2="shape" result="effect2_innerShadow_2002_48"/>
<feTurbulence type="fractalNoise" baseFrequency="10 10" stitchTiles="stitch" numOctaves="3" result="noise" seed="4151" />
<feColorMatrix in="noise" type="luminanceToAlpha" result="alphaNoise" />
<feComponentTransfer in="alphaNoise" result="coloredNoise1">
<feFuncA type="discrete" tableValues="0 0 0 0 0 0 0 1 1 1 1 1 1 1 1 1 1 1 1 1 1 1 1 1 1 1 1 1 1 1 1 1 1 1 1 1 1 1 1 1 1 1 1 0 0 0 0 0 0 0 0 0 0 0 0 0 0 0 0 0 0 0 0 0 0 0 0 0 0 0 0 0 0 0 0 0 0 0 0 0 0 0 0 0 0 0 0 0 0 0 0 0 0 0 0 0 0 0 0 0 "/>
</feComponentTransfer>
<feComposite operator="in" in2="effect2_innerShadow_2002_48" in="coloredNoise1" result="noise1Clipped" />
<feFlood flood-color="rgba(0, 0, 0, 0.05)" result="color1Flood" />
<feComposite operator="in" in2="noise1Clipped" in="color1Flood" result="color1" />
<feMerge result="effect3_noise_2002_48">
<feMergeNode in="effect2_innerShadow_2002_48" />
<feMergeNode in="color1" />
</feMerge>
<feBlend mode="normal" in="effect3_noise_2002_48" in2="effect1_dropShadow_2002_48" result="effect3_noise_2002_48"/>
</filter>
<clipPath id="bgblur_2_2002_48_clip_path" transform="translate(5.69219 -4.5)"><path d="M31.6921 40H12.3079C7.77122 40 4.14237 36.2315 4.31363 31.698L4.9 16.1765V14.5H39.1V16.1765L39.6864 31.698C39.8576 36.2315 36.2288 40 31.6921 40Z"/>
</clipPath><linearGradient id="paint0_linear_2002_48" x1="22" y1="13.4375" x2="22" y2="40" gradientUnits="userSpaceOnUse">
<stop stop-color="white" stop-opacity="0.1"/>
<stop offset="1" stop-color="white" stop-opacity="0"/>
</linearGradient>
<linearGradient id="paint1_linear_2002_48" x1="22" y1="14.5" x2="22" y2="40" gradientUnits="userSpaceOnUse">
<stop stop-color="white" stop-opacity="0.15"/>
<stop offset="1" stop-color="white" stop-opacity="0"/>
</linearGradient>
<linearGradient id="paint2_linear_2002_48" x1="22" y1="22.6818" x2="22" y2="37" gradientUnits="userSpaceOnUse">
<stop stop-color="white"/>
<stop offset="1" stop-color="white" stop-opacity="0.3"/>
</linearGradient>
<linearGradient id="paint3_linear_2002_48" x1="22" y1="22.6818" x2="22" y2="37" gradientUnits="userSpaceOnUse">
<stop stop-color="white"/>
<stop offset="1" stop-color="white" stop-opacity="0.3"/>
</linearGradient>
<clipPath id="clip0_2002_48">
<rect width="44" height="44" fill="white"/>
</clipPath>
</defs>
</svg>
