<svg width="44" height="44" viewBox="0 0 44 44" fill="none" xmlns="http://www.w3.org/2000/svg">
<g clip-path="url(#clip0_2002_223)">
<path d="M33.9746 5C33.8455 7.49038 33.2359 9.8539 32.2383 12C29.809 17.2258 25.0731 21.1604 19.3389 22.5C25.0731 23.8396 29.809 27.7742 32.2383 33C33.2359 35.1461 33.8455 37.5096 33.9746 40H30.9697C30.8132 37.461 30.0638 35.0822 28.8594 33C26.0929 28.2176 20.9222 25 15 25C13.9746 25 12.9718 25.0969 12 25.2812V19.7188C12.9718 19.9031 13.9746 20 15 20C20.9222 20 26.0929 16.7824 28.8594 12C30.0638 9.91782 30.8132 7.53902 30.9697 5H33.9746Z" fill="#009CFD"/>
<foreignObject x="-6" y="-8" width="56" height="60"><div xmlns="http://www.w3.org/1999/xhtml" style="backdrop-filter:blur(5px);clip-path:url(#bgblur_1_2002_223_clip_path);height:100%;width:100%"></div></foreignObject><g filter="url(#filter0_din_2002_223)" data-figma-bg-blur-radius="10">
<path d="M33 28C36.866 28 40 31.134 40 35C40 38.866 36.866 42 33 42C29.134 42 26 38.866 26 35C26 31.134 29.134 28 33 28Z" fill="url(#paint0_linear_2002_223)" shape-rendering="crispEdges"/>
<path d="M33 28C36.866 28 40 31.134 40 35C40 38.866 36.866 42 33 42C29.134 42 26 38.866 26 35C26 31.134 29.134 28 33 28Z" fill="#009CFD" fill-opacity="0.25" shape-rendering="crispEdges"/>
<path d="M11 15C14.866 15 18 18.134 18 22C18 25.866 14.866 29 11 29C7.13401 29 4 25.866 4 22C4 18.134 7.13401 15 11 15Z" fill="url(#paint1_linear_2002_223)" shape-rendering="crispEdges"/>
<path d="M11 15C14.866 15 18 18.134 18 22C18 25.866 14.866 29 11 29C7.13401 29 4 25.866 4 22C4 18.134 7.13401 15 11 15Z" fill="#009CFD" fill-opacity="0.25" shape-rendering="crispEdges"/>
<path d="M33 2C36.866 2 40 5.13401 40 9C40 12.866 36.866 16 33 16C29.134 16 26 12.866 26 9C26 5.13401 29.134 2 33 2Z" fill="url(#paint2_linear_2002_223)" shape-rendering="crispEdges"/>
<path d="M33 2C36.866 2 40 5.13401 40 9C40 12.866 36.866 16 33 16C29.134 16 26 12.866 26 9C26 5.13401 29.134 2 33 2Z" fill="#009CFD" fill-opacity="0.25" shape-rendering="crispEdges"/>
<path d="M33 28.0996C36.8108 28.0996 39.9004 31.1892 39.9004 35C39.9004 38.8108 36.8108 41.9004 33 41.9004C29.1892 41.9004 26.0996 38.8108 26.0996 35C26.0996 31.1892 29.1892 28.0996 33 28.0996ZM11 15.0996C14.8108 15.0996 17.9004 18.1892 17.9004 22C17.9004 25.8108 14.8108 28.9004 11 28.9004C7.18924 28.9004 4.09961 25.8108 4.09961 22C4.09961 18.1892 7.18924 15.0996 11 15.0996ZM33 2.09961C36.8108 2.09961 39.9004 5.18924 39.9004 9C39.9004 12.8108 36.8108 15.9004 33 15.9004C29.1892 15.9004 26.0996 12.8108 26.0996 9C26.0996 5.18924 29.1892 2.09961 33 2.09961Z" stroke="url(#paint3_linear_2002_223)" stroke-width="0.2" shape-rendering="crispEdges"/>
</g>
</g>
<defs>
<filter id="filter0_din_2002_223" x="-6" y="-8" width="56" height="60" filterUnits="userSpaceOnUse" color-interpolation-filters="sRGB">
<feFlood flood-opacity="0" result="BackgroundImageFix"/>
<feColorMatrix in="SourceAlpha" type="matrix" values="0 0 0 0 0 0 0 0 0 0 0 0 0 0 0 0 0 0 127 0" result="hardAlpha"/>
<feOffset dy="1"/>
<feGaussianBlur stdDeviation="2"/>
<feComposite in2="hardAlpha" operator="out"/>
<feColorMatrix type="matrix" values="0 0 0 0 0 0 0 0 0 0 0 0 0 0 0 0 0 0 0.12 0"/>
<feBlend mode="normal" in2="BackgroundImageFix" result="effect1_dropShadow_2002_223"/>
<feBlend mode="normal" in="SourceGraphic" in2="BackgroundImageFix" result="shape"/>
<feColorMatrix in="SourceAlpha" type="matrix" values="0 0 0 0 0 0 0 0 0 0 0 0 0 0 0 0 0 0 127 0" result="hardAlpha"/>
<feOffset dy="1"/>
<feGaussianBlur stdDeviation="1.5"/>
<feComposite in2="hardAlpha" operator="arithmetic" k2="-1" k3="1"/>
<feColorMatrix type="matrix" values="0 0 0 0 1 0 0 0 0 1 0 0 0 0 1 0 0 0 0.1 0"/>
<feBlend mode="normal" in2="shape" result="effect2_innerShadow_2002_223"/>
<feTurbulence type="fractalNoise" baseFrequency="10 10" stitchTiles="stitch" numOctaves="3" result="noise" seed="4151" />
<feColorMatrix in="noise" type="luminanceToAlpha" result="alphaNoise" />
<feComponentTransfer in="alphaNoise" result="coloredNoise1">
<feFuncA type="discrete" tableValues="0 0 0 0 0 0 0 1 1 1 1 1 1 1 1 1 1 1 1 1 1 1 1 1 1 1 1 1 1 1 1 1 1 1 1 1 1 1 1 1 1 1 1 0 0 0 0 0 0 0 0 0 0 0 0 0 0 0 0 0 0 0 0 0 0 0 0 0 0 0 0 0 0 0 0 0 0 0 0 0 0 0 0 0 0 0 0 0 0 0 0 0 0 0 0 0 0 0 0 0 "/>
</feComponentTransfer>
<feComposite operator="in" in2="effect2_innerShadow_2002_223" in="coloredNoise1" result="noise1Clipped" />
<feFlood flood-color="rgba(0, 0, 0, 0.05)" result="color1Flood" />
<feComposite operator="in" in2="noise1Clipped" in="color1Flood" result="color1" />
<feMerge result="effect3_noise_2002_223">
<feMergeNode in="effect2_innerShadow_2002_223" />
<feMergeNode in="color1" />
</feMerge>
<feBlend mode="normal" in="effect3_noise_2002_223" in2="effect1_dropShadow_2002_223" result="effect3_noise_2002_223"/>
</filter>
<clipPath id="bgblur_1_2002_223_clip_path" transform="translate(6 8)"><path d="M33 28C36.866 28 40 31.134 40 35C40 38.866 36.866 42 33 42C29.134 42 26 38.866 26 35C26 31.134 29.134 28 33 28Z"/>
<path d="M11 15C14.866 15 18 18.134 18 22C18 25.866 14.866 29 11 29C7.13401 29 4 25.866 4 22C4 18.134 7.13401 15 11 15Z"/>
<path d="M33 2C36.866 2 40 5.13401 40 9C40 12.866 36.866 16 33 16C29.134 16 26 12.866 26 9C26 5.13401 29.134 2 33 2Z"/>
</clipPath><linearGradient id="paint0_linear_2002_223" x1="33" y1="27.4167" x2="33" y2="42" gradientUnits="userSpaceOnUse">
<stop stop-color="white" stop-opacity="0.1"/>
<stop offset="1" stop-color="white" stop-opacity="0"/>
</linearGradient>
<linearGradient id="paint1_linear_2002_223" x1="33" y1="27.4167" x2="33" y2="42" gradientUnits="userSpaceOnUse">
<stop stop-color="white" stop-opacity="0.1"/>
<stop offset="1" stop-color="white" stop-opacity="0"/>
</linearGradient>
<linearGradient id="paint2_linear_2002_223" x1="33" y1="27.4167" x2="33" y2="42" gradientUnits="userSpaceOnUse">
<stop stop-color="white" stop-opacity="0.1"/>
<stop offset="1" stop-color="white" stop-opacity="0"/>
</linearGradient>
<linearGradient id="paint3_linear_2002_223" x1="22" y1="2" x2="22" y2="42" gradientUnits="userSpaceOnUse">
<stop stop-color="white" stop-opacity="0.15"/>
<stop offset="1" stop-color="white" stop-opacity="0"/>
</linearGradient>
<clipPath id="clip0_2002_223">
<rect width="44" height="44" fill="white"/>
</clipPath>
</defs>
</svg>
