<svg width="44" height="44" viewBox="0 0 44 44" fill="none" xmlns="http://www.w3.org/2000/svg">
<g clip-path="url(#clip0_2002_238)">
<path d="M35.486 25.5C37.886 25.5001 39.7455 27.5989 39.4567 29.9814L38.4264 38.4814C38.183 40.4896 36.4786 41.9999 34.4557 42H9.5446C7.52168 42 5.8174 40.4896 5.5739 38.4814L4.54362 29.9814C4.25483 27.5989 6.11432 25.5 8.51433 25.5H35.486Z" fill="#B85C00"/>
<path d="M27.9997 2C30.2088 2 31.9997 3.79086 31.9997 6V14H27.9997V7C27.9997 6.44772 27.552 6 26.9997 6H16.9997C16.4475 6.00017 15.9997 6.44782 15.9997 7V14H11.9997V6C11.9997 3.79097 13.7907 2.00017 15.9997 2H27.9997Z" fill="#B85C00"/>
<foreignObject x="-6.7553" y="-1" width="57.5106" height="45"><div xmlns="http://www.w3.org/1999/xhtml" style="backdrop-filter:blur(5px);clip-path:url(#bgblur_1_2002_238_clip_path);height:100%;width:100%"></div></foreignObject><g filter="url(#filter0_din_2002_238)" data-figma-bg-blur-radius="10">
<path d="M3.24959 15.2398C3.11339 11.8347 5.83702 9 9.2448 9H34.7552C38.163 9 40.8866 11.8348 40.7504 15.2398L40.2304 28.2398C40.1017 31.4577 37.4556 34 34.2352 34H9.7648C6.54438 34 3.89831 31.4576 3.76959 28.2398L3.24959 15.2398Z" fill="url(#paint0_linear_2002_238)" shape-rendering="crispEdges"/>
<path d="M3.24959 15.2398C3.11339 11.8347 5.83702 9 9.2448 9H34.7552C38.163 9 40.8866 11.8348 40.7504 15.2398L40.2304 28.2398C40.1017 31.4577 37.4556 34 34.2352 34H9.7648C6.54438 34 3.89831 31.4576 3.76959 28.2398L3.24959 15.2398Z" fill="#B85C00" fill-opacity="0.25" shape-rendering="crispEdges"/>
<path d="M9.2447 9.09961H34.7554C38.1061 9.09974 40.7846 11.8873 40.6509 15.2354L40.1304 28.2354C40.0039 31.3996 37.4017 33.9004 34.2349 33.9004H9.76521C6.59846 33.9004 3.99627 31.3996 3.8697 28.2354L3.34919 15.2354C3.21553 11.8873 5.89392 9.09967 9.2447 9.09961Z" stroke="url(#paint1_linear_2002_238)" stroke-width="0.2" shape-rendering="crispEdges"/>
</g>
<path opacity="0.8" d="M22 25.5C23.1046 25.5 24 26.3954 24 27.5C24 28.0063 23.8101 28.467 23.5 28.8193V30.5C23.5 31.3284 22.8284 32 22 32C21.1716 32 20.5 31.3284 20.5 30.5V28.8193C20.1899 28.467 20 28.0063 20 27.5C20 26.3954 20.8954 25.5 22 25.5Z" fill="url(#paint2_linear_2002_238)"/>
</g>
<defs>
<filter id="filter0_din_2002_238" x="-6.7553" y="-1" width="57.5106" height="45" filterUnits="userSpaceOnUse" color-interpolation-filters="sRGB">
<feFlood flood-opacity="0" result="BackgroundImageFix"/>
<feColorMatrix in="SourceAlpha" type="matrix" values="0 0 0 0 0 0 0 0 0 0 0 0 0 0 0 0 0 0 127 0" result="hardAlpha"/>
<feOffset dy="1"/>
<feGaussianBlur stdDeviation="2"/>
<feComposite in2="hardAlpha" operator="out"/>
<feColorMatrix type="matrix" values="0 0 0 0 0 0 0 0 0 0 0 0 0 0 0 0 0 0 0.12 0"/>
<feBlend mode="normal" in2="BackgroundImageFix" result="effect1_dropShadow_2002_238"/>
<feBlend mode="normal" in="SourceGraphic" in2="BackgroundImageFix" result="shape"/>
<feColorMatrix in="SourceAlpha" type="matrix" values="0 0 0 0 0 0 0 0 0 0 0 0 0 0 0 0 0 0 127 0" result="hardAlpha"/>
<feOffset dy="1"/>
<feGaussianBlur stdDeviation="1.5"/>
<feComposite in2="hardAlpha" operator="arithmetic" k2="-1" k3="1"/>
<feColorMatrix type="matrix" values="0 0 0 0 1 0 0 0 0 1 0 0 0 0 1 0 0 0 0.1 0"/>
<feBlend mode="normal" in2="shape" result="effect2_innerShadow_2002_238"/>
<feTurbulence type="fractalNoise" baseFrequency="10 10" stitchTiles="stitch" numOctaves="3" result="noise" seed="4151" />
<feColorMatrix in="noise" type="luminanceToAlpha" result="alphaNoise" />
<feComponentTransfer in="alphaNoise" result="coloredNoise1">
<feFuncA type="discrete" tableValues="0 0 0 0 0 0 0 1 1 1 1 1 1 1 1 1 1 1 1 1 1 1 1 1 1 1 1 1 1 1 1 1 1 1 1 1 1 1 1 1 1 1 1 0 0 0 0 0 0 0 0 0 0 0 0 0 0 0 0 0 0 0 0 0 0 0 0 0 0 0 0 0 0 0 0 0 0 0 0 0 0 0 0 0 0 0 0 0 0 0 0 0 0 0 0 0 0 0 0 0 "/>
</feComponentTransfer>
<feComposite operator="in" in2="effect2_innerShadow_2002_238" in="coloredNoise1" result="noise1Clipped" />
<feFlood flood-color="rgba(0, 0, 0, 0.05)" result="color1Flood" />
<feComposite operator="in" in2="noise1Clipped" in="color1Flood" result="color1" />
<feMerge result="effect3_noise_2002_238">
<feMergeNode in="effect2_innerShadow_2002_238" />
<feMergeNode in="color1" />
</feMerge>
<feBlend mode="normal" in="effect3_noise_2002_238" in2="effect1_dropShadow_2002_238" result="effect3_noise_2002_238"/>
</filter>
<clipPath id="bgblur_1_2002_238_clip_path" transform="translate(6.7553 1)"><path d="M3.24959 15.2398C3.11339 11.8347 5.83702 9 9.2448 9H34.7552C38.163 9 40.8866 11.8348 40.7504 15.2398L40.2304 28.2398C40.1017 31.4577 37.4556 34 34.2352 34H9.7648C6.54438 34 3.89831 31.4576 3.76959 28.2398L3.24959 15.2398Z"/>
</clipPath><linearGradient id="paint0_linear_2002_238" x1="22" y1="6.91667" x2="22" y2="34" gradientUnits="userSpaceOnUse">
<stop stop-color="white" stop-opacity="0.1"/>
<stop offset="1" stop-color="white" stop-opacity="0"/>
</linearGradient>
<linearGradient id="paint1_linear_2002_238" x1="22" y1="9" x2="22" y2="34" gradientUnits="userSpaceOnUse">
<stop stop-color="white" stop-opacity="0.15"/>
<stop offset="1" stop-color="white" stop-opacity="0"/>
</linearGradient>
<linearGradient id="paint2_linear_2002_238" x1="22" y1="27.8636" x2="22" y2="32" gradientUnits="userSpaceOnUse">
<stop stop-color="white"/>
<stop offset="1" stop-color="white" stop-opacity="0.3"/>
</linearGradient>
<clipPath id="clip0_2002_238">
<rect width="44" height="44" fill="white"/>
</clipPath>
</defs>
</svg>
