<svg width="44" height="44" viewBox="0 0 44 44" fill="none" xmlns="http://www.w3.org/2000/svg">
<g clip-path="url(#clip0_2002_265)">
<path d="M2 8C2 4.68629 4.68629 2 8 2H20C23.3137 2 26 4.68629 26 8V16C26 19.3137 23.3137 22 20 22H8C4.68629 22 2 19.3137 2 16V8Z" fill="#B85C00"/>
<foreignObject x="-6" y="0" width="58" height="52"><div xmlns="http://www.w3.org/1999/xhtml" style="backdrop-filter:blur(5px);clip-path:url(#bgblur_1_2002_265_clip_path);height:100%;width:100%"></div></foreignObject><g filter="url(#filter0_din_2002_265)" data-figma-bg-blur-radius="10">
<path d="M4 18C4 13.5817 7.58172 10 12 10H34C38.4183 10 42 13.5817 42 18V34C42 38.4183 38.4183 42 34 42H12C7.58172 42 4 38.4183 4 34V18Z" fill="url(#paint0_linear_2002_265)" shape-rendering="crispEdges"/>
<path d="M4 18C4 13.5817 7.58172 10 12 10H34C38.4183 10 42 13.5817 42 18V34C42 38.4183 38.4183 42 34 42H12C7.58172 42 4 38.4183 4 34V18Z" fill="#B85C00" fill-opacity="0.25" shape-rendering="crispEdges"/>
<path d="M12 10.0996H34C38.363 10.0996 41.9004 13.637 41.9004 18V34C41.9004 38.363 38.363 41.9004 34 41.9004H12C7.63695 41.9004 4.09961 38.363 4.09961 34V18C4.09961 13.637 7.63695 10.0996 12 10.0996Z" stroke="url(#paint1_linear_2002_265)" stroke-width="0.2" shape-rendering="crispEdges"/>
</g>
<path opacity="0.8" d="M42 19V24.5H38C37.1716 24.5 36.5 25.1716 36.5 26C36.5 26.8284 37.1716 27.5 38 27.5H42V33H37C33.134 33 30 29.866 30 26C30 22.134 33.134 19 37 19H42Z" fill="url(#paint2_linear_2002_265)"/>
</g>
<defs>
<filter id="filter0_din_2002_265" x="-6" y="0" width="58" height="52" filterUnits="userSpaceOnUse" color-interpolation-filters="sRGB">
<feFlood flood-opacity="0" result="BackgroundImageFix"/>
<feColorMatrix in="SourceAlpha" type="matrix" values="0 0 0 0 0 0 0 0 0 0 0 0 0 0 0 0 0 0 127 0" result="hardAlpha"/>
<feOffset dy="1"/>
<feGaussianBlur stdDeviation="2"/>
<feComposite in2="hardAlpha" operator="out"/>
<feColorMatrix type="matrix" values="0 0 0 0 0 0 0 0 0 0 0 0 0 0 0 0 0 0 0.12 0"/>
<feBlend mode="normal" in2="BackgroundImageFix" result="effect1_dropShadow_2002_265"/>
<feBlend mode="normal" in="SourceGraphic" in2="BackgroundImageFix" result="shape"/>
<feColorMatrix in="SourceAlpha" type="matrix" values="0 0 0 0 0 0 0 0 0 0 0 0 0 0 0 0 0 0 127 0" result="hardAlpha"/>
<feOffset dy="1"/>
<feGaussianBlur stdDeviation="1.5"/>
<feComposite in2="hardAlpha" operator="arithmetic" k2="-1" k3="1"/>
<feColorMatrix type="matrix" values="0 0 0 0 1 0 0 0 0 1 0 0 0 0 1 0 0 0 0.1 0"/>
<feBlend mode="normal" in2="shape" result="effect2_innerShadow_2002_265"/>
<feTurbulence type="fractalNoise" baseFrequency="10 10" stitchTiles="stitch" numOctaves="3" result="noise" seed="4151" />
<feColorMatrix in="noise" type="luminanceToAlpha" result="alphaNoise" />
<feComponentTransfer in="alphaNoise" result="coloredNoise1">
<feFuncA type="discrete" tableValues="0 0 0 0 0 0 0 1 1 1 1 1 1 1 1 1 1 1 1 1 1 1 1 1 1 1 1 1 1 1 1 1 1 1 1 1 1 1 1 1 1 1 1 0 0 0 0 0 0 0 0 0 0 0 0 0 0 0 0 0 0 0 0 0 0 0 0 0 0 0 0 0 0 0 0 0 0 0 0 0 0 0 0 0 0 0 0 0 0 0 0 0 0 0 0 0 0 0 0 0 "/>
</feComponentTransfer>
<feComposite operator="in" in2="effect2_innerShadow_2002_265" in="coloredNoise1" result="noise1Clipped" />
<feFlood flood-color="rgba(0, 0, 0, 0.05)" result="color1Flood" />
<feComposite operator="in" in2="noise1Clipped" in="color1Flood" result="color1" />
<feMerge result="effect3_noise_2002_265">
<feMergeNode in="effect2_innerShadow_2002_265" />
<feMergeNode in="color1" />
</feMerge>
<feBlend mode="normal" in="effect3_noise_2002_265" in2="effect1_dropShadow_2002_265" result="effect3_noise_2002_265"/>
</filter>
<clipPath id="bgblur_1_2002_265_clip_path" transform="translate(6 0)"><path d="M4 18C4 13.5817 7.58172 10 12 10H34C38.4183 10 42 13.5817 42 18V34C42 38.4183 38.4183 42 34 42H12C7.58172 42 4 38.4183 4 34V18Z"/>
</clipPath><linearGradient id="paint0_linear_2002_265" x1="23" y1="8.66667" x2="23" y2="42" gradientUnits="userSpaceOnUse">
<stop stop-color="white" stop-opacity="0.1"/>
<stop offset="1" stop-color="white" stop-opacity="0"/>
</linearGradient>
<linearGradient id="paint1_linear_2002_265" x1="23" y1="10" x2="23" y2="42" gradientUnits="userSpaceOnUse">
<stop stop-color="white" stop-opacity="0.15"/>
<stop offset="1" stop-color="white" stop-opacity="0"/>
</linearGradient>
<linearGradient id="paint2_linear_2002_265" x1="36" y1="24.0909" x2="36" y2="33" gradientUnits="userSpaceOnUse">
<stop stop-color="white"/>
<stop offset="1" stop-color="white" stop-opacity="0.3"/>
</linearGradient>
<clipPath id="clip0_2002_265">
<rect width="44" height="44" fill="white"/>
</clipPath>
</defs>
</svg>
