<svg width="44" height="44" viewBox="0 0 44 44" fill="none" xmlns="http://www.w3.org/2000/svg">
<g clip-path="url(#clip0_2002_269)">
<path d="M30.4255 7.91153C32.6099 5.59944 36.4883 6.63851 37.2244 9.73282L40.072 21.7113C40.7726 24.6581 38.071 27.2843 35.1453 26.5004L23.8425 23.4711C20.917 22.687 19.8904 19.0624 21.9704 16.8607L30.4255 7.91153Z" fill="#FF4D00"/>
<foreignObject x="-6.06429" y="-3.87219" width="56.1286" height="53.8722"><div xmlns="http://www.w3.org/1999/xhtml" style="backdrop-filter:blur(5px);clip-path:url(#bgblur_1_2002_269_clip_path);height:100%;width:100%"></div></foreignObject><g filter="url(#filter0_din_2002_269)" data-figma-bg-blur-radius="10">
<path d="M18.4854 8.218C19.9998 5.43108 24.0003 5.43108 25.5146 8.218L39.5733 34.0902C41.0216 36.7555 39.0921 40 36.0587 40H7.94134C4.90792 40 2.9784 36.7555 4.42671 34.0902L18.4854 8.218Z" fill="url(#paint0_linear_2002_269)" shape-rendering="crispEdges"/>
<path d="M18.4854 8.218C19.9998 5.43108 24.0003 5.43108 25.5146 8.218L39.5733 34.0902C41.0216 36.7555 39.0921 40 36.0587 40H7.94134C4.90792 40 2.9784 36.7555 4.42671 34.0902L18.4854 8.218Z" fill="#FF4D00" fill-opacity="0.25" shape-rendering="crispEdges"/>
<path d="M18.5734 8.2655C20.05 5.54855 23.9504 5.54846 25.4269 8.2655L39.4855 34.1376C40.8976 36.7362 39.0163 39.9002 36.0588 39.9003H7.94157C4.98399 39.9003 3.10271 36.7363 4.51482 34.1376L18.5734 8.2655Z" stroke="url(#paint1_linear_2002_269)" stroke-width="0.2" shape-rendering="crispEdges"/>
</g>
<g opacity="0.8">
<path d="M22 31C23.1044 31 23.9998 31.8956 24 33C23.9998 34.1044 23.1044 35 22 35C20.8956 35 20.0002 34.1044 20 33C20.0002 31.8956 20.8956 31 22 31Z" fill="url(#paint2_linear_2002_269)"/>
<path d="M22 17.5C22.8284 17.5 23.5 18.1716 23.5 19V27C23.5 27.8284 22.8284 28.5 22 28.5C21.1716 28.5 20.5 27.8284 20.5 27V19C20.5 18.1716 21.1716 17.5 22 17.5Z" fill="url(#paint3_linear_2002_269)"/>
</g>
</g>
<defs>
<filter id="filter0_din_2002_269" x="-6.06429" y="-3.87219" width="56.1286" height="53.8722" filterUnits="userSpaceOnUse" color-interpolation-filters="sRGB">
<feFlood flood-opacity="0" result="BackgroundImageFix"/>
<feColorMatrix in="SourceAlpha" type="matrix" values="0 0 0 0 0 0 0 0 0 0 0 0 0 0 0 0 0 0 127 0" result="hardAlpha"/>
<feOffset dy="1"/>
<feGaussianBlur stdDeviation="2"/>
<feComposite in2="hardAlpha" operator="out"/>
<feColorMatrix type="matrix" values="0 0 0 0 0 0 0 0 0 0 0 0 0 0 0 0 0 0 0.12 0"/>
<feBlend mode="normal" in2="BackgroundImageFix" result="effect1_dropShadow_2002_269"/>
<feBlend mode="normal" in="SourceGraphic" in2="BackgroundImageFix" result="shape"/>
<feColorMatrix in="SourceAlpha" type="matrix" values="0 0 0 0 0 0 0 0 0 0 0 0 0 0 0 0 0 0 127 0" result="hardAlpha"/>
<feOffset dy="1"/>
<feGaussianBlur stdDeviation="1.5"/>
<feComposite in2="hardAlpha" operator="arithmetic" k2="-1" k3="1"/>
<feColorMatrix type="matrix" values="0 0 0 0 1 0 0 0 0 1 0 0 0 0 1 0 0 0 0.1 0"/>
<feBlend mode="normal" in2="shape" result="effect2_innerShadow_2002_269"/>
<feTurbulence type="fractalNoise" baseFrequency="10 10" stitchTiles="stitch" numOctaves="3" result="noise" seed="4151" />
<feColorMatrix in="noise" type="luminanceToAlpha" result="alphaNoise" />
<feComponentTransfer in="alphaNoise" result="coloredNoise1">
<feFuncA type="discrete" tableValues="0 0 0 0 0 0 0 1 1 1 1 1 1 1 1 1 1 1 1 1 1 1 1 1 1 1 1 1 1 1 1 1 1 1 1 1 1 1 1 1 1 1 1 0 0 0 0 0 0 0 0 0 0 0 0 0 0 0 0 0 0 0 0 0 0 0 0 0 0 0 0 0 0 0 0 0 0 0 0 0 0 0 0 0 0 0 0 0 0 0 0 0 0 0 0 0 0 0 0 0 "/>
</feComponentTransfer>
<feComposite operator="in" in2="effect2_innerShadow_2002_269" in="coloredNoise1" result="noise1Clipped" />
<feFlood flood-color="rgba(0, 0, 0, 0.05)" result="color1Flood" />
<feComposite operator="in" in2="noise1Clipped" in="color1Flood" result="color1" />
<feMerge result="effect3_noise_2002_269">
<feMergeNode in="effect2_innerShadow_2002_269" />
<feMergeNode in="color1" />
</feMerge>
<feBlend mode="normal" in="effect3_noise_2002_269" in2="effect1_dropShadow_2002_269" result="effect3_noise_2002_269"/>
</filter>
<clipPath id="bgblur_1_2002_269_clip_path" transform="translate(6.06429 3.87219)"><path d="M18.4854 8.218C19.9998 5.43108 24.0003 5.43108 25.5146 8.218L39.5733 34.0902C41.0216 36.7555 39.0921 40 36.0587 40H7.94134C4.90792 40 2.9784 36.7555 4.42671 34.0902L18.4854 8.218Z"/>
</clipPath><linearGradient id="paint0_linear_2002_269" x1="22" y1="-6.29465" x2="22" y2="58.2143" gradientUnits="userSpaceOnUse">
<stop stop-color="white" stop-opacity="0.1"/>
<stop offset="1" stop-color="white" stop-opacity="0"/>
</linearGradient>
<linearGradient id="paint1_linear_2002_269" x1="22" y1="6.12781" x2="22" y2="40" gradientUnits="userSpaceOnUse">
<stop stop-color="white" stop-opacity="0.15"/>
<stop offset="1" stop-color="white" stop-opacity="0"/>
</linearGradient>
<linearGradient id="paint2_linear_2002_269" x1="22" y1="23.8636" x2="22" y2="35" gradientUnits="userSpaceOnUse">
<stop stop-color="white"/>
<stop offset="1" stop-color="white" stop-opacity="0.3"/>
</linearGradient>
<linearGradient id="paint3_linear_2002_269" x1="22" y1="23.8636" x2="22" y2="35" gradientUnits="userSpaceOnUse">
<stop stop-color="white"/>
<stop offset="1" stop-color="white" stop-opacity="0.3"/>
</linearGradient>
<clipPath id="clip0_2002_269">
<rect width="44" height="44" fill="white"/>
</clipPath>
</defs>
</svg>
